<svg id="visual" viewBox="0 0 960 540" width="960" height="540" xmlns="http://www.w3.org/2000/svg" xmlns:xlink="http://www.w3.org/1999/xlink" version="1.1"><rect x="0" y="0" width="960" height="540" fill="#001220"></rect><defs><linearGradient id="grad1_0" x1="43.8%" y1="0%" x2="100%" y2="100%"><stop offset="14.444444444444446%" stop-color="#009473" stop-opacity="1"></stop><stop offset="85.55555555555554%" stop-color="#009473" stop-opacity="1"></stop></linearGradient></defs><defs><linearGradient id="grad1_1" x1="43.8%" y1="0%" x2="100%" y2="100%"><stop offset="14.444444444444446%" stop-color="#009473" stop-opacity="1"></stop><stop offset="85.55555555555554%" stop-color="#008172" stop-opacity="1"></stop></linearGradient></defs><defs><linearGradient id="grad1_2" x1="43.8%" y1="0%" x2="100%" y2="100%"><stop offset="14.444444444444446%" stop-color="#006d6d" stop-opacity="1"></stop><stop offset="85.55555555555554%" stop-color="#008172" stop-opacity="1"></stop></linearGradient></defs><defs><linearGradient id="grad1_3" x1="43.8%" y1="0%" x2="100%" y2="100%"><stop offset="14.444444444444446%" stop-color="#006d6d" stop-opacity="1"></stop><stop offset="85.55555555555554%" stop-color="#005964" stop-opacity="1"></stop></linearGradient></defs><defs><linearGradient id="grad1_4" x1="43.8%" y1="0%" x2="100%" y2="100%"><stop offset="14.444444444444446%" stop-color="#004657" stop-opacity="1"></stop><stop offset="85.55555555555554%" stop-color="#005964" stop-opacity="1"></stop></linearGradient></defs><defs><linearGradient id="grad1_5" x1="43.8%" y1="0%" x2="100%" y2="100%"><stop offset="14.444444444444446%" stop-color="#004657" stop-opacity="1"></stop><stop offset="85.55555555555554%" stop-color="#003446" stop-opacity="1"></stop></linearGradient></defs><defs><linearGradient id="grad1_6" x1="43.8%" y1="0%" x2="100%" y2="100%"><stop offset="14.444444444444446%" stop-color="#002334" stop-opacity="1"></stop><stop offset="85.55555555555554%" stop-color="#003446" stop-opacity="1"></stop></linearGradient></defs><defs><linearGradient id="grad1_7" x1="43.8%" y1="0%" x2="100%" y2="100%"><stop offset="14.444444444444446%" stop-color="#002334" stop-opacity="1"></stop><stop offset="85.55555555555554%" stop-color="#001220" stop-opacity="1"></stop></linearGradient></defs><defs><linearGradient id="grad2_0" x1="0%" y1="0%" x2="56.3%" y2="100%"><stop offset="14.444444444444446%" stop-color="#009473" stop-opacity="1"></stop><stop offset="85.55555555555554%" stop-color="#009473" stop-opacity="1"></stop></linearGradient></defs><defs><linearGradient id="grad2_1" x1="0%" y1="0%" x2="56.3%" y2="100%"><stop offset="14.444444444444446%" stop-color="#008172" stop-opacity="1"></stop><stop offset="85.55555555555554%" stop-color="#009473" stop-opacity="1"></stop></linearGradient></defs><defs><linearGradient id="grad2_2" x1="0%" y1="0%" x2="56.3%" y2="100%"><stop offset="14.444444444444446%" stop-color="#008172" stop-opacity="1"></stop><stop offset="85.55555555555554%" stop-color="#006d6d" stop-opacity="1"></stop></linearGradient></defs><defs><linearGradient id="grad2_3" x1="0%" y1="0%" x2="56.3%" y2="100%"><stop offset="14.444444444444446%" stop-color="#005964" stop-opacity="1"></stop><stop offset="85.55555555555554%" stop-color="#006d6d" stop-opacity="1"></stop></linearGradient></defs><defs><linearGradient id="grad2_4" x1="0%" y1="0%" x2="56.3%" y2="100%"><stop offset="14.444444444444446%" stop-color="#005964" stop-opacity="1"></stop><stop offset="85.55555555555554%" stop-color="#004657" stop-opacity="1"></stop></linearGradient></defs><defs><linearGradient id="grad2_5" x1="0%" y1="0%" x2="56.3%" y2="100%"><stop offset="14.444444444444446%" stop-color="#003446" stop-opacity="1"></stop><stop offset="85.55555555555554%" stop-color="#004657" stop-opacity="1"></stop></linearGradient></defs><defs><linearGradient id="grad2_6" x1="0%" y1="0%" x2="56.3%" y2="100%"><stop offset="14.444444444444446%" stop-color="#003446" stop-opacity="1"></stop><stop offset="85.55555555555554%" stop-color="#002334" stop-opacity="1"></stop></linearGradient></defs><defs><linearGradient id="grad2_7" x1="0%" y1="0%" x2="56.3%" y2="100%"><stop offset="14.444444444444446%" stop-color="#001220" stop-opacity="1"></stop><stop offset="85.55555555555554%" stop-color="#002334" stop-opacity="1"></stop></linearGradient></defs><g transform="translate(960, 0)"><path d="M0 432C-48.4 410.2 -96.8 388.4 -154.2 372.3C-211.6 356.2 -278 345.7 -305.5 305.5C-333 265.2 -321.7 195.2 -336.3 139.3C-350.9 83.4 -391.5 41.7 -432 0L0 0Z" fill="#011a2a"></path><path d="M0 378C-42.4 358.9 -84.7 339.9 -134.9 325.8C-185.2 311.7 -243.2 302.5 -267.3 267.3C-291.4 232.1 -281.5 170.8 -294.3 121.9C-307 73 -342.5 36.5 -378 0L0 0Z" fill="#002b3d"></path><path d="M0 324C-36.3 307.7 -72.6 291.3 -115.7 279.2C-158.7 267.1 -208.5 259.3 -229.1 229.1C-249.7 198.9 -241.3 146.4 -252.2 104.5C-263.2 62.6 -293.6 31.3 -324 0L0 0Z" fill="#003d4f"></path><path d="M0 270C-30.3 256.4 -60.5 242.8 -96.4 232.7C-132.3 222.6 -173.7 216.1 -190.9 190.9C-208.1 165.8 -201 122 -210.2 87.1C-219.3 52.1 -244.7 26.1 -270 0L0 0Z" fill="#00505e"></path><path d="M0 216C-24.2 205.1 -48.4 194.2 -77.1 186.2C-105.8 178.1 -139 172.9 -152.7 152.7C-166.5 132.6 -160.8 97.6 -168.1 69.6C-175.5 41.7 -195.7 20.9 -216 0L0 0Z" fill="#006369"></path><path d="M0 162C-18.2 153.8 -36.3 145.7 -57.8 139.6C-79.4 133.6 -104.2 129.6 -114.6 114.6C-124.9 99.5 -120.6 73.2 -126.1 52.2C-131.6 31.3 -146.8 15.6 -162 0L0 0Z" fill="#007770"></path><path d="M0 108C-12.1 102.6 -24.2 97.1 -38.6 93.1C-52.9 89 -69.5 86.4 -76.4 76.4C-83.2 66.3 -80.4 48.8 -84.1 34.8C-87.7 20.9 -97.9 10.4 -108 0L0 0Z" fill="#008a73"></path><path d="M0 54C-6.1 51.3 -12.1 48.6 -19.3 46.5C-26.5 44.5 -34.7 43.2 -38.2 38.2C-41.6 33.2 -40.2 24.4 -42 17.4C-43.9 10.4 -48.9 5.2 -54 0L0 0Z" fill="#009473"></path></g><g transform="translate(0, 540)"><path d="M0 -432C47.4 -408.6 94.9 -385.2 153.1 -369.6C211.3 -353.9 280.2 -346.1 305.5 -305.5C330.7 -264.9 312.3 -191.5 326.1 -135.1C339.9 -78.7 386 -39.4 432 0L0 0Z" fill="#011a2a"></path><path d="M0 -378C41.5 -357.5 83 -337 133.9 -323.4C184.9 -309.7 245.2 -302.8 267.3 -267.3C289.4 -231.7 273.3 -167.5 285.4 -118.2C297.4 -68.9 337.7 -34.4 378 0L0 0Z" fill="#002b3d"></path><path d="M0 -324C35.6 -306.4 71.2 -288.9 114.8 -277.2C158.4 -265.4 210.2 -259.6 229.1 -229.1C248.1 -198.6 234.2 -143.6 244.6 -101.3C255 -59 289.5 -29.5 324 0L0 0Z" fill="#003d4f"></path><path d="M0 -270C29.7 -255.4 59.3 -240.7 95.7 -231C132 -221.2 175.1 -216.3 190.9 -190.9C206.7 -165.5 195.2 -119.7 203.8 -84.4C212.5 -49.2 241.2 -24.6 270 0L0 0Z" fill="#00505e"></path><path d="M0 -216C23.7 -204.3 47.4 -192.6 76.5 -184.8C105.6 -177 140.1 -173 152.7 -152.7C165.4 -132.4 156.2 -95.7 163.1 -67.5C170 -39.4 193 -19.7 216 0L0 0Z" fill="#006369"></path><path d="M0 -162C17.8 -153.2 35.6 -144.4 57.4 -138.6C79.2 -132.7 105.1 -129.8 114.6 -114.6C124 -99.3 117.1 -71.8 122.3 -50.7C127.5 -29.5 144.7 -14.8 162 0L0 0Z" fill="#007770"></path><path d="M0 -108C11.9 -102.1 23.7 -96.3 38.3 -92.4C52.8 -88.5 70.1 -86.5 76.4 -76.4C82.7 -66.2 78.1 -47.9 81.5 -33.8C85 -19.7 96.5 -9.8 108 0L0 0Z" fill="#008a73"></path><path d="M0 -54C5.9 -51.1 11.9 -48.1 19.1 -46.2C26.4 -44.2 35 -43.3 38.2 -38.2C41.3 -33.1 39 -23.9 40.8 -16.9C42.5 -9.8 48.2 -4.9 54 0L0 0Z" fill="#009473"></path></g></svg>