<svg xmlns="http://www.w3.org/2000/svg" viewBox="0 0 500 500"><g id="freepik--Floor--inject-39"><path d="M401.82,265.16c-84.78-48.94-221.79-48.94-306,0S12,393.48,96.8,442.42s221.79,48.95,306,0S486.6,314.11,401.82,265.16Z" style="fill:#f5f5f5"></path></g><g id="freepik--Shadows--inject-39"><path d="M392.77,374.63c-18.33-10.58-48-10.58-66.18,0s-18.12,27.75.22,38.34,48,10.58,66.18,0S411.11,385.22,392.77,374.63Z" style="fill:#e6e6e6"></path><path d="M296.78,363.17c-18.33-10.58-48-10.58-66.18,0s-18.12,27.75.22,38.34,48,10.58,66.18,0S315.12,373.76,296.78,363.17Z" style="fill:#e6e6e6"></path></g><g id="freepik--Clouds--inject-39"><path d="M395.29,77.34c-4.05-2.34-7.47-1.19-8.56,2.44a12.1,12.1,0,0,0-4.38-4.87c-3.17-1.83-5.76-.36-5.77,3.29v1.67l-4.26-2.46c-2.23-1.28-4-.25-4,2.31a8.84,8.84,0,0,0,4,7l36.1,20.84c2.23,1.28,4,.26,4-2.3a8.84,8.84,0,0,0-4-6.95l-4.26-2.46V92.71C404.18,87.06,400.21,80.18,395.29,77.34Z" style="fill:#e6e6e6"></path><path d="M359.91,91c-2.9-1.68-5.36-.86-6.14,1.75a8.65,8.65,0,0,0-3.14-3.5c-2.28-1.31-4.14-.26-4.14,2.36v1.2l-3.05-1.76c-1.6-.92-2.9-.18-2.9,1.65a6.31,6.31,0,0,0,2.88,5l25.91,15c1.59.92,2.89.18,2.9-1.65a6.38,6.38,0,0,0-2.88-5l-3.06-1.77V102A14,14,0,0,0,359.91,91Z" style="fill:#e6e6e6"></path></g><g id="freepik--Garland--inject-39"><path d="M447.83,191.78l.47,1.87a153.74,153.74,0,0,1-19-4.92l-.18-1.71-.63-.27A156.56,156.56,0,0,0,447.83,191.78Z" style="fill:#BA68C8"></path><path d="M396.29,174.13l.29.14.18,1.77-.39-.17Z" style="fill:#BA68C8"></path><path d="M329.87,140.16l.1-1.63.28.18v1.68Z" style="fill:#BA68C8"></path><path d="M245.2,76.38l.47-1.32c5.78,5.62,12.26,11.41,19.32,17.29l-.64-.46-.18,1.51C257.24,87.62,250.88,81.91,245.2,76.38Z" style="fill:#BA68C8"></path><path d="M265,92.35l32,23.25-.13,1.09-.2,1.55-2.81,22.83-17.54-2-15.1-21.71,3-24,.18-1.51Zm24.83,42.83,2.23-18.07L268.12,99.73l-2.23,18.06L277,133.71l12.86,1.47" style="fill:#BA68C8"></path><path d="M296.65,118.24l.2-1.55.29.2-.1,1.63C296.91,118.42,296.79,118.33,296.65,118.24Z" style="fill:#BA68C8"></path><polygon points="343.1 161.07 344.01 159.2 344.9 162.12 343.1 161.07" style="fill:#fff"></polygon><path d="M338.83,155a5.22,5.22,0,0,1,1.62,1.49.83.83,0,0,1,.2.52c0,.27-.19.37-.42.24A.79.79,0,0,1,340,157a4,4,0,0,0-1.18-1.13c-.52-.3-.83-.17-.83.22v0c0,.45.22.78,1.22,1.63s1.64,1.69,1.63,2.67v0c0,1.11-.75,1.32-1.83.7a6.12,6.12,0,0,1-1.93-1.85,1,1,0,0,1-.18-.5c0-.27.2-.37.43-.23a.81.81,0,0,1,.27.24,4.47,4.47,0,0,0,1.43,1.44c.56.32.91.22.91-.22s-.2-.78-1.16-1.58c-1.09-1-1.7-1.67-1.7-2.75S337.81,154.37,338.83,155Z" style="fill:#BA68C8"></path><path d="M346.48,164.69a.85.85,0,0,1,0,.25c0,.28-.18.39-.42.25a1,1,0,0,1-.44-.61l-.41-1.35-2.5-1.44-.43.89c-.08.17-.23.2-.42.09a.92.92,0,0,1-.42-.73.36.36,0,0,1,.06-.2l1.92-3.78c.1-.2.29-.26.54-.12l.05,0a1.22,1.22,0,0,1,.53.73Zm-3.38-3.62,1.8,1.05L344,159.2l-.91,1.87" style="fill:#BA68C8"></path><path d="M348,160.28a1,1,0,0,1,.44.77v4.49l2.33,1.34a.88.88,0,0,1,.41.71c0,.25-.19.36-.42.23l-2.77-1.6a1,1,0,0,1-.45-.79v-4.9C347.51,160.24,347.71,160.13,348,160.28Z" style="fill:#BA68C8"></path><path d="M355.49,164.67a.86.86,0,0,1,.4.69c0,.26-.18.36-.4.23L353,164.12v1.54l2.22,1.28a.91.91,0,0,1,.4.7c0,.25-.19.34-.41.22l-2.21-1.28v1.59l2.57,1.49a.88.88,0,0,1,.41.69c0,.27-.19.36-.41.23l-3-1.74a1,1,0,0,1-.46-.79l0-4.85c0-.29.2-.41.45-.26Z" style="fill:#BA68C8"></path><path d="M334.63,144.49l24.14,13.94-.06,19.49-12.09.82L334.57,164Zm11.47,20.7c.24.14.42,0,.42-.25a.85.85,0,0,0,0-.25l-1.9-6a1.22,1.22,0,0,0-.53-.73l-.05,0c-.25-.14-.44-.08-.54.12l-1.92,3.78a.36.36,0,0,0-.06.2.92.92,0,0,0,.42.73c.19.11.34.08.42-.09l.43-.89,2.5,1.44.41,1.35a1,1,0,0,0,.44.61m-5.27-4.76v0c0-1-.55-1.74-1.63-2.67s-1.23-1.18-1.22-1.63v0c0-.39.31-.52.83-.22A4,4,0,0,1,340,157a.79.79,0,0,0,.24.21c.23.13.42,0,.42-.24a.83.83,0,0,0-.2-.52,5.22,5.22,0,0,0-1.62-1.49c-1-.59-1.75-.31-1.76.7s.61,1.82,1.7,2.77c1,.8,1.16,1.14,1.16,1.56s-.35.56-.91.24a4.47,4.47,0,0,1-1.43-1.44.81.81,0,0,0-.27-.24c-.23-.14-.43,0-.43.23a1,1,0,0,0,.18.5,6.12,6.12,0,0,0,1.93,1.85c1.08.62,1.83.41,1.83-.7m14.68,10.15c.22.13.41,0,.41-.23a.88.88,0,0,0-.41-.69l-2.57-1.49v-1.59l2.21,1.28c.22.12.41,0,.41-.22a.91.91,0,0,0-.4-.7l-2.22-1.28v-1.54l2.54,1.47c.22.13.4,0,.4-.23a.86.86,0,0,0-.4-.69l-3-1.73c-.25-.15-.45,0-.45.26l0,4.85a1,1,0,0,0,.46.79l3,1.74m-4.79-2.76c.23.13.42,0,.42-.23a.88.88,0,0,0-.41-.71l-2.33-1.34v-4.49a1,1,0,0,0-.44-.77c-.26-.15-.46,0-.46.25v4.9a1,1,0,0,0,.45.79l2.77,1.6" style="fill:#fff"></path><path d="M318.67,142.84l0,0,3,1.93a.87.87,0,0,1,.38.72c0,.23-.19.31-.41.19h0l-2.53-1.64-.09,1.47,2.21,1.44a.91.91,0,0,1,.37.71c0,.24-.19.32-.39.2l0,0-2.2-1.43-.09,1.53,2.56,1.67a.86.86,0,0,1,.38.71c0,.24-.19.32-.4.2h0l-3-2a1,1,0,0,1-.43-.8l.29-4.69C318.23,142.79,318.43,142.7,318.67,142.84Z" style="fill:#BA68C8"></path><path d="M301.31,123.41l24.08,15.66-1.12,18.82-12.5-.29-11.59-15.36Zm11.12,20.84a.61.61,0,0,0,0-.25l-1.62-5.95a1.21,1.21,0,0,0-.51-.76l0,0-.05,0a.35.35,0,0,0-.52.09l-2.18,3.49a.42.42,0,0,0-.08.18.9.9,0,0,0,.4.74l0,0c.18.11.32.08.4-.07l.5-.82,2.49,1.62.35,1.34a1.07,1.07,0,0,0,.42.64h0c.22.13.41,0,.42-.22m9.62,1.26a.87.87,0,0,0-.38-.72l-3-1.93,0,0c-.24-.14-.44-.05-.45.23l-.29,4.69a1,1,0,0,0,.43.8l3,2h0c.21.12.39,0,.4-.2a.86.86,0,0,0-.38-.71L318.86,148l.09-1.53,2.2,1.43,0,0c.2.12.38,0,.39-.2a.91.91,0,0,0-.37-.71L319,145.52l.09-1.47,2.53,1.64h0c.22.12.39,0,.41-.19m-15.23-6.16c.05-.93-.47-1.73-1.54-2.72s-1.19-1.25-1.17-1.69.31-.49.79-.21l.09.05a4.34,4.34,0,0,1,1.15,1.21,1,1,0,0,0,.23.22h0c.23.13.42.05.43-.21a.85.85,0,0,0-.17-.52,5.77,5.77,0,0,0-1.6-1.59l-.14-.09c-.94-.54-1.64-.32-1.7.61v0c-.07,1.05.53,1.81,1.6,2.81s1.13,1.22,1.11,1.62-.36.5-.86.21L305,139a4.77,4.77,0,0,1-1.39-1.52.86.86,0,0,0-.27-.27h0c-.22-.13-.41-.05-.43.2a.93.93,0,0,0,.16.5,6.48,6.48,0,0,0,1.88,2l.2.12c1,.56,1.67.37,1.73-.63v0M317,147.22a.9.9,0,0,0-.38-.72l-2.32-1.5.26-4.34a1,1,0,0,0-.42-.79h0c-.24-.15-.44-.05-.45.22l-.29,4.74a1,1,0,0,0,.43.8l2.77,1.8h0c.22.13.4,0,.41-.21" style="fill:#fff"></path><path d="M312.39,144a.61.61,0,0,1,0,.25c0,.26-.2.35-.42.22h0a1.07,1.07,0,0,1-.42-.64l-.35-1.34-2.49-1.62-.5.82c-.08.15-.22.18-.4.07l0,0a.9.9,0,0,1-.4-.74.42.42,0,0,1,.08-.18l2.18-3.49a.35.35,0,0,1,.52-.09l.05,0,0,0a1.21,1.21,0,0,1,.51.76Zm-3.27-3.8,1.8,1.17-.77-2.89-1,1.72" style="fill:#BA68C8"></path><polygon points="309.12 140.21 310.15 138.48 310.92 141.37 309.12 140.21" style="fill:#fff"></polygon><path d="M304.91,133.81l.14.09a5.77,5.77,0,0,1,1.6,1.59.85.85,0,0,1,.17.52c0,.26-.2.34-.43.21h0a1,1,0,0,1-.23-.22,4.34,4.34,0,0,0-1.15-1.21l-.09-.05c-.48-.28-.77-.16-.79.19s.2.8,1.17,1.71,1.59,1.79,1.54,2.72v0c-.06,1-.76,1.19-1.73.63l-.2-.12a6.48,6.48,0,0,1-1.88-2,.93.93,0,0,1-.16-.5c0-.25.21-.33.43-.2h0a.86.86,0,0,1,.27.27A4.77,4.77,0,0,0,305,139l.1.06c.5.29.83.2.86-.19s-.17-.78-1.11-1.64-1.67-1.76-1.6-2.81v0C303.27,133.49,304,133.27,304.91,133.81Z" style="fill:#BA68C8"></path><path d="M314.14,139.86h0a1,1,0,0,1,.42.79l-.26,4.34,2.32,1.5a.9.9,0,0,1,.38.72c0,.25-.19.34-.41.21h0l-2.77-1.8a1,1,0,0,1-.43-.8l.29-4.74C313.7,139.81,313.9,139.71,314.14,139.86Z" style="fill:#BA68C8"></path><path d="M297.21,115.69,330.06,137l-.09,1.5-.1,1.63-1.39,23.43-17-.4-15.81-20.94L297,118.52l.1-1.63Zm27.06,42.2,1.12-18.82-24.08-15.66-1.13,18.83,11.59,15.36,12.5.29" style="fill:#BA68C8"></path><polygon points="275.22 116.67 276.39 115.11 277.01 117.97 275.22 116.67" style="fill:#fff"></polygon><path d="M271.08,110a2.82,2.82,0,0,1,.31.21,5.87,5.87,0,0,1,1.55,1.67.87.87,0,0,1,.15.53c0,.23-.21.3-.42.17,0,0,0,0-.05,0a1.05,1.05,0,0,1-.23-.24,4.54,4.54,0,0,0-1.12-1.26.94.94,0,0,0-.18-.12c-.42-.24-.69-.16-.72.16s.15.79,1.1,1.76,1.54,1.88,1.43,2.78v0c-.11.9-.77,1.06-1.66.55l-.36-.23a7.19,7.19,0,0,1-1.83-2.08.84.84,0,0,1-.13-.5c0-.23.21-.3.42-.18l.06,0a.9.9,0,0,1,.25.28,5,5,0,0,0,1.36,1.6l.19.13c.45.25.75.19.79-.17s-.12-.76-1-1.68c-1.05-1.07-1.62-1.86-1.49-2.86S270.22,109.52,271.08,110Z" style="fill:#BA68C8"></path><path d="M278.38,120.65a.76.76,0,0,1,0,.25c0,.23-.21.31-.42.19l-.05,0a1.08,1.08,0,0,1-.4-.65l-.29-1.33-2.47-1.79-.56.74c-.08.13-.23.14-.39,0l-.06,0a.92.92,0,0,1-.36-.75.31.31,0,0,1,.09-.18l2.45-3.16c.11-.15.28-.18.5,0l.08.06,0,0a1.25,1.25,0,0,1,.49.78Zm-3.16-4L277,118l-.62-2.87-1.17,1.56" style="fill:#BA68C8"></path><path d="M280.38,116.79l.07,0a.94.94,0,0,1,.38.81l-.51,4.15,2.3,1.68a.89.89,0,0,1,.36.73c0,.22-.21.29-.41.18l-.05,0-2.76-2a.93.93,0,0,1-.38-.81l.56-4.54C280,116.74,280.16,116.66,280.38,116.79Z" style="fill:#BA68C8"></path><path d="M284.88,120.1l.06,0,3,2.16a.82.82,0,0,1,.34.71c0,.22-.19.29-.39.18l-.06,0-2.51-1.82-.18,1.42,2.19,1.59a.89.89,0,0,1,.35.73c0,.21-.2.27-.4.16l-.06,0L285,123.6l-.19,1.47,2.56,1.86a.9.9,0,0,1,.35.72c0,.22-.21.29-.41.17l-.05,0-3-2.18a1,1,0,0,1-.4-.81l.56-4.5C284.46,120.05,284.65,120,284.88,120.1Z" style="fill:#BA68C8"></path><path d="M268.12,99.73l23.93,17.38-2.23,18.07L277,133.71l-11.07-15.92ZM278.4,120.9a.76.76,0,0,0,0-.25l-1.33-5.9a1.25,1.25,0,0,0-.49-.78l0,0-.08-.06c-.22-.13-.39-.1-.5,0l-2.45,3.16a.31.31,0,0,0-.09.18.92.92,0,0,0,.36.75l.06,0c.16.1.31.09.39,0l.56-.74,2.47,1.79.29,1.33a1.08,1.08,0,0,0,.4.65l.05,0c.21.12.39,0,.42-.19m9.84,2.11a.82.82,0,0,0-.34-.71l-3-2.16-.06,0c-.23-.13-.42,0-.45.2l-.56,4.5a1,1,0,0,0,.4.81l3,2.18.05,0c.2.12.37.05.41-.17a.9.9,0,0,0-.35-.72l-2.56-1.86.19-1.47,2.18,1.59.06,0c.2.11.37,0,.4-.16a.89.89,0,0,0-.35-.73l-2.19-1.59.18-1.42,2.51,1.82.06,0c.2.11.37,0,.39-.18m-15.15-10.59a.87.87,0,0,0-.15-.53,5.87,5.87,0,0,0-1.55-1.67,2.82,2.82,0,0,0-.31-.21c-.86-.49-1.52-.31-1.62.53-.13,1,.44,1.81,1.49,2.88.92.92,1.09,1.28,1.05,1.67s-.35.43-.8.18l-.19-.13a5,5,0,0,1-1.36-1.6.9.9,0,0,0-.25-.28l-.06,0c-.21-.12-.39,0-.42.18a.84.84,0,0,0,.13.5,7,7,0,0,0,1.83,2.08l.36.23c.89.51,1.55.35,1.66-.55v0c.11-.9-.39-1.72-1.43-2.78s-1.16-1.32-1.11-1.75.31-.41.73-.17a.94.94,0,0,1,.18.12,4.54,4.54,0,0,1,1.12,1.26,1.05,1.05,0,0,0,.23.24s0,0,.05,0c.21.13.39.06.42-.17M283,124.2a.89.89,0,0,0-.36-.73l-2.3-1.68.51-4.15a.94.94,0,0,0-.38-.81l-.07,0c-.22-.13-.41-.05-.44.2l-.56,4.54a.93.93,0,0,0,.38.81l2.76,2,.05,0c.2.11.38,0,.41-.18" style="fill:#fff"></path><path d="M373.38,174.54a5.12,5.12,0,0,1,1.41,1.23,1,1,0,0,1,.22.52c0,.29-.16.41-.39.3l0,0a.81.81,0,0,1-.2-.18,4.14,4.14,0,0,0-1.06-1l-.15-.08c-.52-.25-.81-.09-.79.31s.28.81,1.28,1.58a3.57,3.57,0,0,1,1.75,2.59c.07,1.17-.64,1.47-1.72.94l-.25-.13a6.14,6.14,0,0,1-1.72-1.58.92.92,0,0,1-.2-.5c0-.28.16-.4.39-.28l.06,0a.65.65,0,0,1,.21.19,4.28,4.28,0,0,0,1.31,1.25l.17.09c.55.26.88.13.85-.33s-.24-.79-1.2-1.51c-1.12-.86-1.75-1.54-1.82-2.66s.63-1.43,1.64-.94Z" style="fill:#BA68C8"></path><path d="M382.28,179a1,1,0,0,1,.45.74l.28,4.64,2.32,1.14h0a1,1,0,0,1,.42.68c0,.27-.16.39-.39.28l-2.76-1.35,0,0a1,1,0,0,1-.46-.75l-.3-5.08c0-.29.16-.43.42-.31Z" style="fill:#BA68C8"></path><path d="M389.79,182.7a.89.89,0,0,1,.4.65c0,.27-.16.39-.38.29l-2.52-1.25.09,1.58,2.2,1.09,0,0a.88.88,0,0,1,.4.66c0,.27-.16.38-.37.28l-2.2-1.08.09,1.63,2.57,1.27,0,0a.89.89,0,0,1,.4.65c0,.28-.15.39-.37.29l-3-1.49,0,0a1,1,0,0,1-.44-.74l-.3-5c0-.31.16-.45.42-.32l3,1.47Z" style="fill:#BA68C8"></path><path d="M416.07,194.7a1,1,0,0,1,.44.71l.43,4.71,2.31,1,.05,0a.89.89,0,0,1,.4.65c0,.27-.13.42-.36.32l-2.75-1.23-.06,0a1,1,0,0,1-.44-.72l-.48-5.15c0-.3.15-.46.41-.34Z" style="fill:#BA68C8"></path><path d="M423.54,198.07a.9.9,0,0,1,.4.65c0,.27-.14.4-.35.3l-2.53-1.12.15,1.61,2.19,1,0,0a.93.93,0,0,1,.41.66c0,.27-.14.39-.36.3l-2.19-1,.15,1.66,2.56,1.15.05,0a1,1,0,0,1,.4.64c0,.28-.14.41-.36.31l-3-1.34-.06,0a1,1,0,0,1-.45-.73l-.46-5.09c0-.32.15-.46.4-.36l3,1.33Z" style="fill:#BA68C8"></path><path d="M429.29,188.73,432.1,216l-15.17,4.23-17.48-18.22-2.69-26-.18-1.77-.13-1.25,32,13.73.63.27Zm-13,25.43,11.13-3.1-2.12-20.58-23.95-10.26,2.12,20.58,12.82,13.36" style="fill:#BA68C8"></path><path d="M396.37,175.87l1.28,25.28-15.88,2.64-17-19.23-1.26-25-.09-1.73-.08-1.6,32.86,16.59.07,1.28Zm-14.9,22,11.65-2-1-20.06L368,163.67l1,20.06,12.45,14.11" style="fill:#BA68C8"></path><path d="M448.3,193.65l-.47-1.87a154.8,154.8,0,0,1-19.35-5l-32-13.72.13,1.24-.29-.13-.07-1.28-32.86-16.6.08,1.6-.27-.15v-1.78l-32.91-19v1.79l-.28-.17.09-1.5-32.85-21.35-.07,1.2-.29-.2.13-1.09L265,92.36c-7.06-5.88-13.54-11.68-19.32-17.3l-.47,1.33c5.68,5.53,12,11.23,19,17l-3,24,15.1,21.71,17.54,2,2.81-22.84.39.28-1.41,23.73,15.81,20.94,17,.4,1.39-23.43.38.23-.07,24,16.43,20.13,16.49-1.13.06-24,.37.2,1.26,25,17,19.23,15.88-2.64-1.28-25.28.39.17,2.69,26,17.48,18.23L432.1,216l-2.81-27.31A153.74,153.74,0,0,0,448.3,193.65Z" style="fill:#fff;opacity:0.5"></path><path d="M363.17,157.71l.27.15.09,1.73-.37-.2Z" style="fill:#BA68C8"></path><path d="M330.26,136.92l32.91,19v3.46l-.06,24-16.49,1.13L330.18,164.4l.07-24v-3.47Zm28.45,41,.06-19.49-24.14-13.94L334.57,164l12.05,14.76,12.09-.82" style="fill:#BA68C8"></path><path d="M392.11,175.83l1,20.06-11.65,2L369,183.73l-1-20.06Zm-11.34,8.39c.25.12.41,0,.4-.3l-.07-.26-2.2-6a1.22,1.22,0,0,0-.51-.67l-.05,0,0,0a.32.32,0,0,0-.51.17l-1.6,4.12a.36.36,0,0,0-.05.21.92.92,0,0,0,.41.68l0,0c.19.1.33,0,.39-.13l.37-1,2.49,1.23.48,1.35a1.06,1.06,0,0,0,.43.57l0,0m9.39,4.58c.22.1.39,0,.37-.29a.89.89,0,0,0-.4-.65l0,0-2.57-1.27-.09-1.63,2.2,1.08c.21.1.39,0,.37-.28a.88.88,0,0,0-.4-.66l0,0-2.2-1.09-.09-1.58,2.52,1.25c.22.1.39,0,.38-.29a.89.89,0,0,0-.4-.65l0,0-3-1.47c-.26-.13-.44,0-.42.32l.3,5a1,1,0,0,0,.44.74l0,0,3,1.49m-16.47-8c1.08.53,1.79.23,1.72-.92a3.56,3.56,0,0,0-1.75-2.61c-1-.77-1.25-1.09-1.28-1.56s.27-.58.79-.33l.15.08a4.14,4.14,0,0,1,1.06,1,.81.81,0,0,0,.2.18l0,0c.23.11.41,0,.39-.3a1,1,0,0,0-.22-.52,5.12,5.12,0,0,0-1.41-1.23l-.25-.14c-1-.49-1.7-.13-1.64.92s.7,1.82,1.82,2.68c1,.72,1.18,1.06,1.2,1.5s-.3.6-.85.34l-.17-.09a4.28,4.28,0,0,1-1.31-1.25.65.65,0,0,0-.21-.19l-.06,0c-.23-.12-.41,0-.39.28a.92.92,0,0,0,.2.5,6.14,6.14,0,0,0,1.72,1.58l.25.13m11.69,5.67c.23.11.4,0,.39-.28a1,1,0,0,0-.42-.68h0L383,184.33l-.28-4.64a1,1,0,0,0-.45-.74l0,0c-.26-.12-.44,0-.42.31l.3,5.08a1,1,0,0,0,.46.75l0,0,2.76,1.35" style="fill:#fff"></path><polygon points="377.63 180.27 378.38 178.25 379.42 181.16 377.63 180.27" style="fill:#fff"></polygon><path d="M381.17,183.92c0,.28-.15.42-.4.3l0,0a1.06,1.06,0,0,1-.43-.57l-.48-1.35-2.49-1.23-.37,1c-.06.18-.2.23-.39.13l0,0a.92.92,0,0,1-.41-.68.36.36,0,0,1,.05-.21l1.6-4.12a.32.32,0,0,1,.51-.17l0,0,.05,0a1.22,1.22,0,0,1,.51.67l2.2,6Zm-3.55-3.65,1.8.89-1-2.91-.76,2" style="fill:#BA68C8"></path><path d="M407.31,190.77a4.94,4.94,0,0,1,1.29,1.1.93.93,0,0,1,.23.52c0,.29-.14.43-.37.32l0,0a1,1,0,0,1-.2-.16,4,4,0,0,0-1-.89l-.21-.1c-.52-.24-.8,0-.76.36s.3.81,1.31,1.53a3.57,3.57,0,0,1,1.8,2.54v0c.1,1.17-.58,1.52-1.66,1a3.35,3.35,0,0,1-.37-.2,5.77,5.77,0,0,1-1.61-1.44,1,1,0,0,1-.22-.49c0-.28.15-.42.38-.31l.06,0a.76.76,0,0,1,.21.18,4,4,0,0,0,1.22,1.13l.26.14c.56.25.88.09.84-.38s-.27-.78-1.24-1.47a3.53,3.53,0,0,1-1.87-2.61c-.1-1.08.56-1.49,1.58-1A2.69,2.69,0,0,1,407.31,190.77Z" style="fill:#BA68C8"></path><polygon points="411.53 196.3 412.2 194.19 413.32 197.09 411.53 196.3" style="fill:#fff"></polygon><path d="M425.31,190.48l2.12,20.58-11.13,3.1L403.48,200.8l-2.12-20.58Zm-10.56,9.66c.24.1.4,0,.37-.34l-.07-.25-2.36-6a1.27,1.27,0,0,0-.49-.64l-.08,0-.05,0a.32.32,0,0,0-.5.2l-1.42,4.29a.54.54,0,0,0,0,.22,1,1,0,0,0,.41.67l.05,0c.19.09.33,0,.38-.16l.32-1,2.49,1.11.51,1.34a1.1,1.1,0,0,0,.43.55l.05,0m9.35,4.12c.22.1.38,0,.36-.31a1,1,0,0,0-.4-.64l-.05,0-2.56-1.15-.15-1.66,2.19,1c.22.09.39,0,.36-.3a.93.93,0,0,0-.41-.66l0,0-2.19-1-.15-1.61,2.53,1.12c.21.1.38,0,.35-.3a.9.9,0,0,0-.4-.65l0,0-3-1.33c-.25-.1-.43,0-.4.36l.46,5.09a1,1,0,0,0,.45.73l.06,0,3,1.34M407.69,197c1.08.48,1.76.13,1.66-1v0a3.57,3.57,0,0,0-1.8-2.54c-1-.72-1.27-1-1.31-1.52s.24-.61.76-.37l.21.1a4,4,0,0,1,1,.89,1,1,0,0,0,.2.16l0,0c.23.11.4,0,.37-.32a.93.93,0,0,0-.23-.52,4.94,4.94,0,0,0-1.29-1.1,2.69,2.69,0,0,0-.38-.19c-1-.46-1.68-.05-1.58,1a3.53,3.53,0,0,0,1.87,2.62c1,.69,1.2,1,1.24,1.46s-.28.64-.84.39l-.26-.14a4,4,0,0,1-1.22-1.13.76.76,0,0,0-.21-.18l-.06,0c-.23-.11-.4,0-.38.31a1,1,0,0,0,.22.49,5.77,5.77,0,0,0,1.61,1.44,3.35,3.35,0,0,0,.37.2m11.65,5.11c.23.1.39,0,.36-.32a.89.89,0,0,0-.4-.65l-.05,0-2.31-1-.43-4.71a1,1,0,0,0-.44-.71l-.05,0c-.26-.12-.43,0-.41.34l.48,5.15a1,1,0,0,0,.44.72l.06,0,2.75,1.23" style="fill:#fff"></path><path d="M415.12,199.8c0,.29-.13.44-.37.34l-.05,0a1.1,1.1,0,0,1-.43-.55l-.51-1.34-2.49-1.11-.32,1c-.05.19-.19.25-.38.16l-.05,0a1,1,0,0,1-.41-.67.54.54,0,0,1,0-.22l1.42-4.29a.32.32,0,0,1,.5-.2l.05,0,.08,0a1.27,1.27,0,0,1,.49.64l2.36,6Zm-3.59-3.5,1.8.8-1.13-2.91-.67,2.11" style="fill:#BA68C8"></path></g><g id="freepik--window-shopping--inject-39"><polygon points="61.28 136.16 61.28 369.5 244.11 263.94 244.11 30.61 61.28 136.16" style="fill:#455a64"></polygon><polygon points="183.96 77.68 71.97 142.34 71.97 293.9 183.96 229.21 183.96 77.68" style="fill:#BA68C8"></polygon><polygon points="183.96 229.21 71.97 293.9 71.97 350.98 183.96 286.32 233.42 257.67 183.96 229.21" style="fill:#BA68C8"></polygon><polygon points="233.42 257.67 233.42 257.67 233.42 49.13 183.96 77.68 183.96 229.21 233.42 257.67" style="fill:#BA68C8"></polygon><polygon points="183.96 77.68 71.97 142.34 71.97 293.9 183.96 229.21 183.96 77.68" style="fill:#fff;opacity:0.30000000000000004"></polygon><polygon points="183.96 229.21 71.97 293.9 71.97 350.98 183.96 286.32 233.42 257.67 183.96 229.21" style="fill:#fff;opacity:0.2"></polygon><polygon points="233.42 257.67 233.42 257.67 233.42 49.13 183.96 77.68 183.96 229.21 233.42 257.67" style="fill:#fff;opacity:0.4"></polygon><polygon points="146.63 86.87 169.06 110.65 181.25 103.61 158.82 79.83 146.63 86.87" style="fill:#fff"></polygon><polygon points="171.01 72.8 193.44 96.57 205.64 89.53 183.2 65.76 171.01 72.8" style="fill:#fff"></polygon><polygon points="158.82 79.83 181.25 103.61 193.44 96.57 171.01 72.8 158.82 79.83" style="fill:#BA68C8"></polygon><polygon points="183.2 65.76 205.64 89.53 217.83 82.49 195.4 58.72 183.2 65.76" style="fill:#BA68C8"></polygon><polygon points="195.4 58.72 217.83 82.49 230.02 75.45 207.59 51.68 195.4 58.72" style="fill:#fff"></polygon><polygon points="122.25 100.95 144.68 124.73 156.87 117.69 134.44 93.91 122.25 100.95" style="fill:#fff"></polygon><polygon points="134.44 93.91 156.87 117.69 169.06 110.65 146.63 86.87 134.44 93.91" style="fill:#BA68C8"></polygon><g style="opacity:0.30000000000000004"><polygon points="146.63 86.87 169.06 110.65 181.25 103.61 158.82 79.83 146.63 86.87" style="fill:#fff"></polygon><polygon points="171.01 72.8 193.44 96.57 205.64 89.53 183.2 65.76 171.01 72.8" style="fill:#fff"></polygon><polygon points="158.82 79.83 181.25 103.61 193.44 96.57 171.01 72.8 158.82 79.83" style="fill:#fff"></polygon><polygon points="183.2 65.76 205.64 89.53 217.83 82.49 195.4 58.72 183.2 65.76" style="fill:#fff"></polygon><polygon points="195.4 58.72 217.83 82.49 230.02 75.45 207.59 51.68 195.4 58.72" style="fill:#fff"></polygon><g style="isolation:isolate"><polygon points="231.97 37.6 254.4 61.38 266.59 54.34 244.16 30.56 231.97 37.6" style="fill:#fff"></polygon><polygon points="219.78 44.64 242.21 68.42 254.4 61.38 231.97 37.6 219.78 44.64" style="fill:#fff"></polygon><polygon points="207.59 51.68 230.02 75.45 242.21 68.42 219.78 44.64 207.59 51.68" style="fill:#fff"></polygon></g><polygon points="122.25 100.95 144.68 124.73 156.87 117.69 134.44 93.91 122.25 100.95" style="fill:#fff"></polygon><g style="isolation:isolate"><polygon points="110.05 107.99 132.49 131.77 144.68 124.73 122.25 100.95 110.05 107.99" style="fill:#fff"></polygon><polygon points="97.86 115.03 120.29 138.8 132.49 131.77 110.05 107.99 97.86 115.03" style="fill:#fff"></polygon><polygon points="85.67 122.07 108.1 145.84 120.29 138.8 97.86 115.03 85.67 122.07" style="fill:#fff"></polygon><polygon points="73.48 129.11 95.91 152.88 108.1 145.84 85.67 122.07 73.48 129.11" style="fill:#fff"></polygon><polygon points="61.29 136.15 83.72 159.92 95.91 152.88 73.48 129.11 61.29 136.15" style="fill:#fff"></polygon></g><polygon points="134.44 93.91 156.87 117.69 169.06 110.65 146.63 86.87 134.44 93.91" style="fill:#fff"></polygon></g><path d="M95.92,152.89a14.94,14.94,0,0,1-6.08,7.81c-2.66,1.54-5,1.13-6.11-.77Z" style="fill:#BA68C8"></path><path d="M108.12,145.85a15.07,15.07,0,0,1-6.09,7.82c-2.66,1.53-5,1.12-6.11-.78Z" style="fill:#fff"></path><path d="M169.07,110.66a15,15,0,0,1-6.08,7.81c-2.67,1.54-5,1.13-6.11-.77Z" style="fill:#BA68C8"></path><path d="M156.88,117.7a15,15,0,0,1-6.09,7.81c-2.66,1.54-5,1.12-6.1-.77Z" style="fill:#fff"></path><path d="M144.69,124.74a15,15,0,0,1-6.09,7.81c-2.66,1.54-5,1.12-6.1-.77Z" style="fill:#BA68C8"></path><path d="M132.5,131.78a15,15,0,0,1-6.09,7.81c-2.66,1.54-5,1.12-6.1-.77Z" style="fill:#fff"></path><path d="M120.31,138.82a15.09,15.09,0,0,1-6.09,7.81c-2.66,1.54-5,1.12-6.1-.78Z" style="fill:#BA68C8"></path><path d="M205.64,89.55a15,15,0,0,1-6.08,7.81c-2.67,1.54-5,1.12-6.11-.77Z" style="fill:#fff"></path><path d="M193.45,96.59a15.12,15.12,0,0,1-6.08,7.81c-2.67,1.54-5,1.12-6.11-.78Z" style="fill:#BA68C8"></path><path d="M181.26,103.62a15.1,15.1,0,0,1-6.08,7.82c-2.67,1.53-5,1.12-6.11-.78Z" style="fill:#fff"></path><path d="M217.83,82.51a15,15,0,0,1-6.08,7.81c-2.67,1.54-5,1.12-6.11-.77Z" style="fill:#BA68C8"></path><path d="M266.59,54.36a15,15,0,0,1-6.08,7.81c-2.66,1.54-5,1.12-6.11-.78Z" style="fill:#BA68C8"></path><path d="M254.4,61.39a15,15,0,0,1-6.08,7.82c-2.66,1.53-5,1.12-6.11-.78Z" style="fill:#fff"></path><path d="M242.21,68.43a15,15,0,0,1-6.08,7.82c-2.66,1.53-5,1.12-6.11-.78Z" style="fill:#BA68C8"></path><path d="M230,75.47a15,15,0,0,1-6.08,7.81c-2.66,1.54-5,1.12-6.11-.77Z" style="fill:#fff"></path><g style="opacity:0.1"><path d="M95.92,152.89a14.94,14.94,0,0,1-6.08,7.81c-2.66,1.54-5,1.13-6.11-.77Z"></path><path d="M108.12,145.85a15.07,15.07,0,0,1-6.09,7.82c-2.66,1.53-5,1.12-6.11-.78Z"></path><path d="M169.07,110.66a15,15,0,0,1-6.08,7.81c-2.67,1.54-5,1.13-6.11-.77Z"></path><path d="M156.88,117.7a15,15,0,0,1-6.09,7.81c-2.66,1.54-5,1.12-6.1-.77Z"></path><path d="M144.69,124.74a15,15,0,0,1-6.09,7.81c-2.66,1.54-5,1.12-6.1-.77Z"></path><path d="M132.5,131.78a15,15,0,0,1-6.09,7.81c-2.66,1.54-5,1.12-6.1-.77Z"></path><path d="M120.31,138.82a15.09,15.09,0,0,1-6.09,7.81c-2.66,1.54-5,1.12-6.1-.78Z"></path><path d="M205.64,89.55a15,15,0,0,1-6.08,7.81c-2.67,1.54-5,1.12-6.11-.77Z"></path><path d="M193.45,96.59a15.12,15.12,0,0,1-6.08,7.81c-2.67,1.54-5,1.12-6.11-.78Z"></path><path d="M181.26,103.62a15.1,15.1,0,0,1-6.08,7.82c-2.67,1.53-5,1.12-6.11-.78Z"></path><path d="M217.83,82.51a15,15,0,0,1-6.08,7.81c-2.67,1.54-5,1.12-6.11-.77Z"></path><path d="M266.59,54.36a15,15,0,0,1-6.08,7.81c-2.66,1.54-5,1.12-6.11-.78Z"></path><path d="M254.4,61.39a15,15,0,0,1-6.08,7.82c-2.66,1.53-5,1.12-6.11-.78Z"></path><path d="M242.21,68.43a15,15,0,0,1-6.08,7.82c-2.66,1.53-5,1.12-6.11-.78Z"></path><path d="M230,75.47a15,15,0,0,1-6.08,7.81c-2.66,1.54-5,1.12-6.11-.77Z"></path></g><path d="M112.89,165.63c7.77-1.67,12.67,4.65,12.76,11.1s0,27.34,1.53,39.45C124.13,220.48,120,219,120,219,120.8,187.5,112.89,165.63,112.89,165.63Z" style="fill:#BA68C8"></path><path d="M112.89,165.63c7.77-1.67,12.67,4.65,12.76,11.1s0,27.34,1.53,39.45C124.13,220.48,120,219,120,219,120.8,187.5,112.89,165.63,112.89,165.63Z" style="opacity:0.30000000000000004"></path><path d="M127.92,291.7h-.69a11.68,11.68,0,0,0-4.89-4.86c-7.41-4.28-19.38-4.28-26.75,0a11.45,11.45,0,0,0-4.85,4.9H90.1v2.84h0c0,2.81,1.87,5.61,5.58,7.75,7.41,4.28,19.39,4.28,26.75,0,3.68-2.14,5.51-4.94,5.49-7.75h0Z" style="fill:#BA68C8"></path><path d="M127.92,291.7h-.69a11.68,11.68,0,0,0-4.89-4.86c-7.41-4.28-19.38-4.28-26.75,0a11.45,11.45,0,0,0-4.85,4.9H90.1v2.84h0c0,2.81,1.87,5.61,5.58,7.75,7.41,4.28,19.39,4.28,26.75,0,3.68-2.14,5.51-4.94,5.49-7.75h0Z" style="opacity:0.2"></path><path d="M122.34,284c-7.41-4.28-19.38-4.28-26.75,0s-7.32,11.22.09,15.49,19.39,4.28,26.75,0S129.75,288.27,122.34,284Z" style="fill:#BA68C8"></path><path d="M122.34,284c-7.41-4.28-19.38-4.28-26.75,0s-7.32,11.22.09,15.49,19.39,4.28,26.75,0S129.75,288.27,122.34,284Z" style="fill:#fff;opacity:0.30000000000000004"></path><path d="M111.85,239.8h-5.44l-.29,51.94h0a1.44,1.44,0,0,0,.85,1.18,4.47,4.47,0,0,0,4.09,0,1.43,1.43,0,0,0,.84-1.18Z" style="fill:#BA68C8"></path><path d="M111.85,239.8h-5.44l-.29,51.94h0a1.44,1.44,0,0,0,.85,1.18,4.47,4.47,0,0,0,4.09,0,1.43,1.43,0,0,0,.84-1.18Z" style="opacity:0.2"></path><path d="M111.86,255.1V239.8h-5.44l-.1,17.83a11.88,11.88,0,0,0,3-1A16.75,16.75,0,0,0,111.86,255.1Z" style="opacity:0.2"></path><path d="M97.91,172.52c-12.86,6.1-12.63,16-7.36,24s5.69,10.25,5.69,13.58-3.71,10.82-3.71,20.11v13.28c7.18,8.36,20.08,4.48,33.12-6.2,0-17.34-3.33-20.23-3.33-27,0-11.4,2.64-16.26,2.64-26.39s-6.22-19.83-13.52-17.68A56.52,56.52,0,0,0,97.91,172.52Z" style="fill:#455a64"></path><path d="M125.93,222.5c-1.11-7-3.59-13.84-2.29-21.06,2.79-13.5,1.6-22.05.83-24.69s-4-12.42-11.58-11.12-20,8.92-22.09,11.87c0,0-4.55,5.63-4.69,10.39s4.37,9.53,5.35,15.15-.77,14,.34,38.5c7.54,5.9,16.93,3.67,24.81-.7l.72-17.27,1.77,15.8a57.34,57.34,0,0,0,7.45-5.67A45.44,45.44,0,0,0,125.93,222.5Z" style="fill:#f0f0f0"></path><path d="M125.93,222.5c-1.11-7-3.59-13.84-2.29-21.06,2.79-13.5,1.6-22.05.83-24.69s-4-12.42-11.58-11.12-20,8.92-22.09,11.87c0,0-4.55,5.63-4.69,10.39s4.37,9.53,5.35,15.15-.77,14,.34,38.5c7.54,5.9,16.93,3.67,24.81-.7l.72-17.27,1.77,15.8a57.34,57.34,0,0,0,7.45-5.67A45.44,45.44,0,0,0,125.93,222.5Z" style="fill:#BA68C8"></path><path d="M125.93,222.5c-1.11-7-3.59-13.84-2.29-21.06,2.79-13.5,1.6-22.05.83-24.69s-4-12.42-11.58-11.12-20,8.92-22.09,11.87c0,0-4.55,5.63-4.69,10.39s4.37,9.53,5.35,15.15-.77,14,.34,38.5c7.54,5.9,16.93,3.67,24.81-.7l.72-17.27,1.77,15.8a57.34,57.34,0,0,0,7.45-5.67A45.44,45.44,0,0,0,125.93,222.5Z" style="opacity:0.2"></path><path d="M115.26,200.82c.51-.29.92-.06.92.52a2,2,0,0,1-.91,1.58c-.51.29-.92.06-.92-.52A2,2,0,0,1,115.26,200.82Z" style="fill:#e0e0e0"></path><path d="M115.75,208c.5-.29.91-.05.91.53a2,2,0,0,1-.91,1.58c-.5.29-.91,0-.92-.53A2,2,0,0,1,115.75,208Z" style="fill:#e0e0e0"></path><path d="M116.23,215.13c.51-.29.92-.06.92.52a2,2,0,0,1-.91,1.58c-.51.29-.92.06-.92-.52A2,2,0,0,1,116.23,215.13Z" style="fill:#e0e0e0"></path><path d="M97.83,174.73a4.67,4.67,0,0,1,0-1.06,8,8,0,0,0-2.46,6.45,13.53,13.53,0,0,0,1.83,5.34c1.06-.11,3.35-.56,4.41-.66-.59.81-2.42,2-3,2.79a24.66,24.66,0,0,0,15.32,9.76S98.41,182.14,97.83,174.73Z" style="fill:#BA68C8"></path><path d="M116.19,183.4a26.39,26.39,0,0,0-.78-5.3,18.82,18.82,0,0,1-3.08.66l2.31-3c-.11-.28-.23-.55-.35-.82-1.23-2.63-3.07-6.22-6-6.22a7.56,7.56,0,0,0-.21,1.74,3.91,3.91,0,0,0,.49,2.05c3.87,5.75,5.42,20.73,5.34,24.82l.25-.41A34.83,34.83,0,0,0,116.19,183.4Z" style="fill:#BA68C8"></path><path d="M97.83,174.73a4.67,4.67,0,0,1,0-1.06,8,8,0,0,0-2.46,6.45,13.53,13.53,0,0,0,1.83,5.34c1.06-.11,3.35-.56,4.41-.66-.59.81-2.42,2-3,2.79a24.66,24.66,0,0,0,15.32,9.76S98.41,182.14,97.83,174.73Z" style="opacity:0.4"></path><path d="M116.19,183.4a26.39,26.39,0,0,0-.78-5.3,18.82,18.82,0,0,1-3.08.66l2.31-3c-.11-.28-.23-.55-.35-.82-1.23-2.63-3.07-6.22-6-6.22a7.56,7.56,0,0,0-.21,1.74,3.91,3.91,0,0,0,.49,2.05c3.87,5.75,5.42,20.73,5.34,24.82l.25-.41A34.83,34.83,0,0,0,116.19,183.4Z" style="opacity:0.4"></path><path d="M108.6,172.53a3.91,3.91,0,0,1-.49-2.05l-3.47-.56-6.38,4.2a2.92,2.92,0,0,0-.43.61c.58,7.41,16.11,22.62,16.11,22.62C114,193.26,112.47,178.28,108.6,172.53Z" style="fill:#455a64"></path><path d="M108.84,173.67h0v0h0c-.26-.75-.58-3-.58-8.8H98.44a55.68,55.68,0,0,1-.6,8.84h0c-.31,1,.2,2.1,1.56,2.88a8.71,8.71,0,0,0,7.92,0C108.67,175.77,109.17,174.68,108.84,173.67Z" style="fill:#455a64"></path><path d="M106.81,162.82a7.67,7.67,0,0,0-7,0c-1.91,1.11-1.9,2.91,0,4a7.65,7.65,0,0,0,6.94,0C108.74,165.73,108.73,163.93,106.81,162.82Z" style="fill:#455a64"></path><path d="M106.81,162.82a7.67,7.67,0,0,0-7,0c-1.91,1.11-1.9,2.91,0,4a7.65,7.65,0,0,0,6.94,0C108.74,165.73,108.73,163.93,106.81,162.82Z" style="fill:#fff;opacity:0.30000000000000004"></path><path d="M89.76,178.92c-7.6,5.71-10.66,10.79-8.66,59.74,3.11,2.89,10,0,10,0-.77-29.44,3.64-40,1-52.49C90.45,179.24,89.76,178.92,89.76,178.92Z" style="fill:#BA68C8"></path><path d="M89.76,178.92c-7.6,5.71-10.66,10.79-8.66,59.74,3.11,2.89,10,0,10,0-.77-29.44,3.64-40,1-52.49C90.45,179.24,89.76,178.92,89.76,178.92Z" style="opacity:0.30000000000000004"></path><path d="M185,260.93h-.7a11.56,11.56,0,0,0-4.89-4.86c-7.41-4.28-19.38-4.28-26.74,0a11.29,11.29,0,0,0-4.85,4.9h-.65v2.84h0c0,2.81,1.88,5.61,5.58,7.75,7.41,4.28,19.39,4.28,26.75,0,3.68-2.14,5.51-4.94,5.5-7.75h0Z" style="fill:#BA68C8"></path><path d="M185,260.93h-.7a11.56,11.56,0,0,0-4.89-4.86c-7.41-4.28-19.38-4.28-26.74,0a11.29,11.29,0,0,0-4.85,4.9h-.65v2.84h0c0,2.81,1.88,5.61,5.58,7.75,7.41,4.28,19.39,4.28,26.75,0,3.68-2.14,5.51-4.94,5.5-7.75h0Z" style="opacity:0.2"></path><path d="M179.37,253.22c-7.41-4.28-19.38-4.28-26.74,0s-7.33,11.22.08,15.49,19.39,4.28,26.75,0S186.78,257.5,179.37,253.22Z" style="fill:#BA68C8"></path><path d="M179.37,253.22c-7.41-4.28-19.38-4.28-26.74,0s-7.33,11.22.08,15.49,19.39,4.28,26.75,0S186.78,257.5,179.37,253.22Z" style="fill:#fff;opacity:0.30000000000000004"></path><path d="M168.88,209h-5.44L163.15,261h0a1.45,1.45,0,0,0,.85,1.18,4.47,4.47,0,0,0,4.09,0,1.4,1.4,0,0,0,.84-1.18Z" style="fill:#BA68C8"></path><path d="M168.88,209h-5.44L163.15,261h0a1.45,1.45,0,0,0,.85,1.18,4.47,4.47,0,0,0,4.09,0,1.4,1.4,0,0,0,.84-1.18Z" style="opacity:0.2"></path><path d="M168.9,224.33l0-15.3h-5.44l-.1,17.82a11.36,11.36,0,0,0,3-1A17.36,17.36,0,0,0,168.9,224.33Z" style="opacity:0.2"></path><path d="M157.77,211.92s-1.42,5.16-5.42,5.54c.69-7.7-4.46-28.4,1.56-40a11.8,11.8,0,0,0-.18-11.1c-.85-1.54-1.72-2.69-2.34-2.82-4.77-1.61-8.7-10.12-4.13-13.66,6-5.22,13.79-10.36,21-12.37,2-.39,6.7,1.41,6.25,8,7.67,9.68,5.6,13.85,2.64,16.69l-.31,5.56a12,12,0,0,0,1.35,6.22c6.08,11.73,2.23,32.13,4.5,41.84C169.5,222.75,156.35,222,157.77,211.92Z" style="fill:#455a64"></path><path d="M178.14,174a12.54,12.54,0,0,1-.88-2.27A23.91,23.91,0,0,1,154.82,175a11.52,11.52,0,0,1-.91,2.43c-6,11.62-.87,32.32-1.56,40,4-.38,5.42-5.54,5.42-5.54-1.42,10.05,11.73,10.83,24.87,3.87C180.37,206.08,184.22,185.68,178.14,174Z" style="fill:#BA68C8"></path><path d="M167.11,176.07a24.15,24.15,0,0,0,10.15-4.39,12.19,12.19,0,0,1-.47-3.81,23.87,23.87,0,0,1-21.62,3.56,11.69,11.69,0,0,1-.35,3.58A24.25,24.25,0,0,0,167.11,176.07Z" style="fill:#BA68C8"></path><path d="M166.69,172.23a24.21,24.21,0,0,0,10.1-4.36.65.65,0,0,0,0-.14l.31-5.56c3-2.84,5-7-2.64-16.69a93.57,93.57,0,0,0-7.48-7.62c-.88.29-1.78.63-2.68,1a20.47,20.47,0,0,1,4.62,5.24,6.55,6.55,0,0,1,1.07,2.76,5.14,5.14,0,0,1-1.26,3.59,7.5,7.5,0,0,1-10.37,1.26c-2.23-1.69-3.48-4.59-5.78-6.08-.7.51-1.39,1-2.07,1.55a17.14,17.14,0,0,1,5.49,7.55,11.68,11.68,0,0,1-1,10.1,5.18,5.18,0,0,1-1.31,1.37l.08.14a11.68,11.68,0,0,1,1.44,5.09A24.32,24.32,0,0,0,166.69,172.23Z" style="fill:#BA68C8"></path><path d="M178.14,174a12.54,12.54,0,0,1-.88-2.27A23.91,23.91,0,0,1,154.82,175a11.52,11.52,0,0,1-.91,2.43c-6,11.62-.87,32.32-1.56,40,4-.38,5.42-5.54,5.42-5.54-1.42,10.05,11.73,10.83,24.87,3.87C180.37,206.08,184.22,185.68,178.14,174Z" style="opacity:0.30000000000000004"></path><path d="M167.11,176.07a24.15,24.15,0,0,0,10.15-4.39,12.19,12.19,0,0,1-.47-3.81,23.87,23.87,0,0,1-21.62,3.56,11.69,11.69,0,0,1-.35,3.58A24.25,24.25,0,0,0,167.11,176.07Z" style="opacity:0.4"></path><path d="M166.69,172.23a24.21,24.21,0,0,0,10.1-4.36.65.65,0,0,0,0-.14l.31-5.56c3-2.84,5-7-2.64-16.69a93.57,93.57,0,0,0-7.48-7.62c-.88.29-1.78.63-2.68,1a20.47,20.47,0,0,1,4.62,5.24,6.55,6.55,0,0,1,1.07,2.76,5.14,5.14,0,0,1-1.26,3.59,7.5,7.5,0,0,1-10.37,1.26c-2.23-1.69-3.48-4.59-5.78-6.08-.7.51-1.39,1-2.07,1.55a17.14,17.14,0,0,1,5.49,7.55,11.68,11.68,0,0,1-1,10.1,5.18,5.18,0,0,1-1.31,1.37l.08.14a11.68,11.68,0,0,1,1.44,5.09A24.32,24.32,0,0,0,166.69,172.23Z" style="opacity:0.30000000000000004"></path><path d="M167,146.33h0v0h0c-.26-.75-.58-3-.58-8.8h-9.83a56.6,56.6,0,0,1-.59,8.84h0c-.32,1,.2,2.1,1.56,2.88a8.71,8.71,0,0,0,7.92,0C166.86,148.43,167.37,147.34,167,146.33Z" style="fill:#455a64"></path><path d="M165,135.48a7.67,7.67,0,0,0-6.95,0c-1.91,1.11-1.9,2.91,0,4a7.67,7.67,0,0,0,6.95,0C166.94,138.39,166.93,136.59,165,135.48Z" style="fill:#455a64"></path><path d="M165,135.48a7.67,7.67,0,0,0-6.95,0c-1.91,1.11-1.9,2.91,0,4a7.67,7.67,0,0,0,6.95,0C166.94,138.39,166.93,136.59,165,135.48Z" style="fill:#fff;opacity:0.30000000000000004"></path><polygon points="231.97 37.6 254.4 61.38 266.59 54.34 244.16 30.56 231.97 37.6" style="fill:#BA68C8"></polygon><polygon points="219.78 44.64 242.21 68.42 254.4 61.38 231.97 37.6 219.78 44.64" style="fill:#fff"></polygon><polygon points="207.59 51.68 230.02 75.45 242.21 68.42 219.78 44.64 207.59 51.68" style="fill:#BA68C8"></polygon><polygon points="110.05 107.99 132.49 131.77 144.68 124.73 122.25 100.95 110.05 107.99" style="fill:#BA68C8"></polygon><polygon points="97.86 115.03 120.29 138.8 132.49 131.77 110.05 107.99 97.86 115.03" style="fill:#fff"></polygon><polygon points="85.67 122.07 108.1 145.84 120.29 138.8 97.86 115.03 85.67 122.07" style="fill:#BA68C8"></polygon><polygon points="73.48 129.11 95.91 152.88 108.1 145.84 85.67 122.07 73.48 129.11" style="fill:#fff"></polygon><polygon points="61.29 136.15 83.72 159.92 95.91 152.88 73.48 129.11 61.29 136.15" style="fill:#BA68C8"></polygon></g><g id="freepik--character-2--inject-39"><path d="M327.54,312.06l-.09-.06a.36.36,0,0,1,0-.51l5.9-6.06c1.61-1.71,3.45-3.64,6-3.82a2.23,2.23,0,0,1,2.06,1.3,1.5,1.5,0,0,1-.15,1.72l-5.92,6.56a.35.35,0,0,1-.51,0,.36.36,0,0,1,0-.5l5.92-6.57a.85.85,0,0,0,0-.93,1.54,1.54,0,0,0-1.37-.9c-2.31.16-4,1.91-5.57,3.6l-.47.49L328,312A.35.35,0,0,1,327.54,312.06Z" style="fill:#455a64"></path><polygon points="343.95 310.82 344.76 307.85 320.24 309.31 299.78 336.06 306.94 345.81 334.22 344.07 345.76 311.71 343.95 310.82" style="fill:#455a64"></polygon><polygon points="343.95 310.82 344.76 307.85 320.24 309.31 299.78 336.06 306.94 345.81 334.22 344.07 345.76 311.71 343.95 310.82" style="fill:#fff;opacity:0.30000000000000004"></polygon><polygon points="324.3 311 306.49 338.13 306.94 345.81 324.3 311" style="opacity:0.2"></polygon><polygon points="299.78 336.06 306.49 338.13 306.94 345.81 299.78 336.06" style="opacity:0.1"></polygon><polygon points="320.24 309.31 344.76 307.85 342.57 310.13 345.76 311.71 323.11 313.38 324.3 311 320.24 309.31" style="opacity:0.30000000000000004"></polygon><polygon points="342.57 310.13 341.96 311.99 345.76 311.71 342.57 310.13" style="opacity:0.2"></polygon><path d="M330.21,315.51a.35.35,0,0,1-.16-.47l4.14-8.35a7.93,7.93,0,0,1,6.56-4.39,2,2,0,0,1,2,2.93l-4.63,9.34a.36.36,0,0,1-.47.16.35.35,0,0,1-.16-.48l4.62-9.34a1.31,1.31,0,0,0-1.27-1.9,7.25,7.25,0,0,0-6,4l-4.13,8.34A.35.35,0,0,1,330.21,315.51Z" style="fill:#455a64"></path><path d="M350.34,238.71c-8.06,2.06-10.76,9-11.87,16a147.69,147.69,0,0,0-1.42,14.73c-2.25,7.35-2.6,21-3.79,24.64s-2.9,7-.83,9.62a7.71,7.71,0,0,0,2.65,2.53,4.48,4.48,0,0,0,3.5-.08,5.92,5.92,0,0,0,3.05-4.59,17.36,17.36,0,0,0-.41-5.69,17.66,17.66,0,0,1-.44-5.69c1.41-10.1,4.24-24.55,6.06-34.58Z" style="fill:#ffa8a7"></path><path d="M330.53,315.11l-.11,0a.35.35,0,0,1-.23-.45l2.59-8.05c.69-2.25,1.48-4.79,3.71-6.1a2.23,2.23,0,0,1,2.42.25,1.51,1.51,0,0,1,.63,1.61l-2.39,8.51a.36.36,0,1,1-.69-.19l2.39-8.52a.83.83,0,0,0-.38-.85,1.49,1.49,0,0,0-1.62-.19c-2,1.16-2.71,3.46-3.39,5.69l-.21.65-2.38,7.41A.36.36,0,0,1,330.53,315.11Z" style="fill:#455a64"></path><polygon points="327.15 318.26 327.06 354.49 350.73 340.83 346.7 306.71 327.15 318.26" style="fill:#BA68C8"></polygon><polygon points="327.15 318.26 327.15 315.59 322.77 315.89 316.31 348.94 327.06 354.49 327.15 318.26" style="fill:#BA68C8"></polygon><polygon points="327.15 315.59 323.24 347.81 327.06 354.49 327.15 315.59" style="fill:#BA68C8"></polygon><polygon points="327.15 315.59 323.24 347.81 327.06 354.49 327.15 315.59" style="opacity:0.2"></polygon><polygon points="316.31 348.94 323.24 347.81 327.06 354.49 316.31 348.94" style="fill:#BA68C8"></polygon><polygon points="316.31 348.94 323.24 347.81 327.06 354.49 316.31 348.94" style="opacity:0.1"></polygon><polygon points="322.77 315.89 344.09 303.69 343.14 306.71 346.7 306.71 327.15 318.26 327.15 315.59 322.77 315.89" style="fill:#BA68C8"></polygon><polygon points="322.77 315.89 344.09 303.69 343.14 306.71 346.7 306.71 327.15 318.26 327.15 315.59 322.77 315.89" style="opacity:0.30000000000000004"></polygon><polygon points="343.14 306.71 343.42 308.64 346.7 306.71 343.14 306.71" style="fill:#BA68C8"></polygon><polygon points="343.14 306.71 343.42 308.64 346.7 306.71 343.14 306.71" style="opacity:0.2"></polygon><polygon points="344.09 303.69 344.68 306.71 343.14 306.71 344.09 303.69" style="fill:#BA68C8"></polygon><path d="M334.46,317a.36.36,0,0,1-.36-.35v-9.32a8,8,0,0,1,3.93-6.85,2,2,0,0,1,3.06,1.76v10.42a.36.36,0,0,1-.71,0V302.25a1.31,1.31,0,0,0-.67-1.15,1.28,1.28,0,0,0-1.32,0,7.24,7.24,0,0,0-3.58,6.23v9.32A.35.35,0,0,1,334.46,317Z" style="fill:#455a64"></path><path d="M372.12,275.72c8.79,21.74.84,37.77-8.39,59.13,5.6,4.87,14.78,15.46,23.27,34,0,0,0,4.52-6.21,4.23-1.1-1.69-23.34-22.86-23.34-22.86l-13.74,35.06s-3.44,2.21-7.68-2.66c0,0,7-41,9.6-50.92-4-9.75-9.63-26.74-1.26-55.81Z" style="fill:#ffa8a7"></path><path d="M346.39,329.09c3.38-15.94,6.67-26.65,6.67-26.65-5.84-3.71-7.53-7.26-7.53-7.26a14,14,0,0,0,5,8.92C347.93,313.19,346.39,329.09,346.39,329.09Z" style="opacity:0.2"></path><path d="M357.45,350.25c1.3-3.67,2.84-6.92,2.84-6.92l3.44-8.48s-3.82,15.15-4.61,17Z" style="opacity:0.2"></path><path d="M327.44,399.52c4.2.21,8.85-4,10.92-5.51s3.44-1.41,4.43-6.07l.92-2.63L336,382.65l-.89,4.53a4.31,4.31,0,0,1-1.35,2.36l-6.4,5.71a17.59,17.59,0,0,1-3.21,2.34l-.21.11C323.89,398.53,324.6,399.39,327.44,399.52Z" style="fill:#ffa8a7"></path><path d="M342.79,387.94c-1,4.66-2.35,4.61-4.43,6.07s-6.72,5.72-10.92,5.51c-2.84-.13-3.55-1-3.47-1.82l-3,1.68a2.89,2.89,0,0,0-.64,4.6l0,0a6.45,6.45,0,0,0,3.84,1.45,12.15,12.15,0,0,0,7.6-1.91c1.78-1.17,3.27-2.83,5.23-3.66a31.08,31.08,0,0,1,3.3-.94,5.57,5.57,0,0,0,2.91-1.71,5.65,5.65,0,0,0,.93-3.87A14.23,14.23,0,0,0,342.79,387.94Z" style="fill:#37474f"></path><path d="M382.73,388.48a2.57,2.57,0,0,0,2.23,0,5.78,5.78,0,0,0,3-3.36,19.26,19.26,0,0,0,.91-5c.11-1.15.23-2.3.34-3.45a13,13,0,0,0,.09-3.3,3.49,3.49,0,0,0-1.29-2.3l-1.91-4.18L379.79,372l1.84,1.92a3.76,3.76,0,0,1,1.06,2.65l-.05,8.21a5.28,5.28,0,0,1-.67,2.56A1.59,1.59,0,0,0,382.73,388.48Z" style="fill:#ffa8a7"></path><path d="M391.85,374a4,4,0,0,0-3.87-2.91,3.49,3.49,0,0,1,1.29,2.3,10.39,10.39,0,0,1,0,2.73l-.45,4.52a17.15,17.15,0,0,1-.86,4.51,5.78,5.78,0,0,1-3,3.36,2.57,2.57,0,0,1-2.23,0,1.59,1.59,0,0,1-.76-1.16,5.68,5.68,0,0,1-1.08,1.42,8.43,8.43,0,0,0-.73.76,2.38,2.38,0,0,0-.46,2.6,3.26,3.26,0,0,0,2.55,1.35,10.74,10.74,0,0,0,4.41-.09,5.63,5.63,0,0,0,3.5-2.53,9.05,9.05,0,0,0,.86-3.65l.8-8.79c.08-.9.15-1.8.17-2.71A6.6,6.6,0,0,0,391.85,374Z" style="fill:#37474f"></path><path d="M373.2,240.08c-4-1.25-12.53-2.19-22.86-1.37-.46,2.49-2.73,5-4.58,6.68a69.66,69.66,0,0,0-5.62,5.1c-1.66,1.9-2.88,4.4-2.53,6.9a6.35,6.35,0,0,0,1,2.52,17.79,17.79,0,0,1,2.57,6.92c.75,4.46,1.86,8.81,1.86,8.81-4.35,13.68-6.4,39.9-6.4,39.9,11.61,10.66,28,8.83,34.12-.83,3,5.69,7.59,6.75,10.66,7.58.29-13.81-1-29.2-5.11-39.82a52.87,52.87,0,0,1-3.37-23.75A121.47,121.47,0,0,0,373.2,240.08Z" style="fill:#455a64"></path><path d="M364.75,258.41a10,10,0,0,1-13.93,2.9,8.1,8.1,0,0,0,7.94,3.67C361.84,264.45,364,261.44,364.75,258.41Z" style="opacity:0.2"></path><path d="M345.71,223.74a9.44,9.44,0,0,1-1.14-11.87,3.28,3.28,0,0,1-2-3.29,3.23,3.23,0,0,1,2.59-2.82,9.08,9.08,0,0,1,3.44.48,16.82,16.82,0,0,0,5.92,0c2-.28,3.91-.71,5.89-.85a11.92,11.92,0,0,1,5.83.82,6.54,6.54,0,0,1,3.77,4.33,4.55,4.55,0,0,1,4.32,1.81,7.64,7.64,0,0,1,1.42,4.43c.06,1.58-.16,3.15-.24,4.73a10.65,10.65,0,0,0,.6,4.66c.71,1.7,2.12,3.09,2.57,4.88a4.91,4.91,0,0,1-6,5.95,13,13,0,0,0,.45-3.83c-.15,1.73-1.88,3.09-3.52,3.67a13.81,13.81,0,0,1-5.17.46l-6.13-.25-7.14-.28a9.77,9.77,0,0,1-3.73-.64,6.38,6.38,0,0,1-3.33-5.49A16.59,16.59,0,0,1,345.71,223.74Z" style="fill:#263238"></path><path d="M354.83,234.47l.31,5.21a6.89,6.89,0,0,0-2,2.34,2.22,2.22,0,0,0,.55,2.72,2.93,2.93,0,0,0,1.85.33,14,14,0,0,0,8.9-4.09,2.9,2.9,0,0,0,.84-2l.19-9.74Z" style="fill:#ffa8a7"></path><path d="M364.75,229.61l-9.92,4.86.17,2.66a12.51,12.51,0,0,0,9.75-7.52Z" style="opacity:0.2"></path><path d="M363.45,221.91a9.65,9.65,0,0,0-.11,2.46,2.91,2.91,0,0,0,.81,1.64,1.83,1.83,0,0,0,1.65.49A3.2,3.2,0,0,1,372,225a4.06,4.06,0,0,1-.67,3.33,7.64,7.64,0,0,1-2.68,2.23,2.72,2.72,0,0,1-3.23-1.27c-3.11,3.95-8.54,6.91-13.63,6.48a7.24,7.24,0,0,1-3.87-1.36c-1.92-1.49-2.06-3.74-2.31-5.95a31.53,31.53,0,0,1,.07-8.46A16.64,16.64,0,0,1,351,209.79C352.79,218.2,360.5,221.29,363.45,221.91Z" style="fill:#ffa8a7"></path><polygon points="352.86 220.96 349.37 225.25 352.61 226.36 352.86 220.96" style="fill:#f28f8f"></polygon><path d="M355.59,228.46l-2.72.85a1.68,1.68,0,0,0,1.84.83A1.51,1.51,0,0,0,355.59,228.46Z" style="fill:#f28f8f"></path><path d="M355.59,228.46l-2.72.85a1.68,1.68,0,0,0,1.84.83A1.51,1.51,0,0,0,355.59,228.46Z" style="opacity:0.30000000000000004"></path><path d="M353.82,230.1a1.6,1.6,0,0,0,.89,0,1.35,1.35,0,0,0,.88-1.23,1.56,1.56,0,0,0-1.77,1.19Z" style="fill:#f28f8f"></path><path d="M357.65,221.85a1,1,0,0,1-1.93-.09,1,1,0,0,1,1-.92A1,1,0,0,1,357.65,221.85Z" style="fill:#263238"></path><path d="M349.56,221.17a1,1,0,0,1-1.94-.09,1,1,0,0,1,1.94.09Z" style="fill:#263238"></path><path d="M348.79,217.28l-2.21,1.39a1.39,1.39,0,0,1,.49-1.5A1.65,1.65,0,0,1,348.79,217.28Z" style="fill:#263238"></path><path d="M357.07,217.54l2.07,1.58a1.38,1.38,0,0,0-.35-1.54A1.64,1.64,0,0,0,357.07,217.54Z" style="fill:#263238"></path><path d="M371.09,316.84a.22.22,0,0,1-.11,0,.35.35,0,0,1-.23-.44l2.59-8.06c.69-2.24,1.48-4.79,3.71-6.09a2.21,2.21,0,0,1,2.42.24,1.52,1.52,0,0,1,.63,1.61l-2.39,8.51a.35.35,0,1,1-.68-.19l2.38-8.51A.85.85,0,0,0,379,303a1.53,1.53,0,0,0-1.62-.19c-2,1.17-2.7,3.47-3.39,5.69l-.2.65-2.39,7.42A.35.35,0,0,1,371.09,316.84Z" style="fill:#455a64"></path><polygon points="367.71 319.99 367.62 356.23 391.29 342.56 387.26 308.44 367.71 319.99" style="fill:#BA68C8"></polygon><polygon points="367.71 319.99 367.71 317.33 363.33 317.62 356.87 350.67 367.62 356.23 367.71 319.99" style="fill:#BA68C8"></polygon><polygon points="367.71 317.33 363.8 349.55 367.62 356.23 367.71 317.33" style="fill:#BA68C8"></polygon><polygon points="367.71 317.33 363.8 349.55 367.62 356.23 367.71 317.33" style="opacity:0.2"></polygon><polygon points="356.87 350.67 363.8 349.55 367.62 356.23 356.87 350.67" style="fill:#BA68C8"></polygon><polygon points="356.87 350.67 363.8 349.55 367.62 356.23 356.87 350.67" style="opacity:0.1"></polygon><polygon points="363.33 317.62 384.65 305.42 383.71 308.44 387.26 308.44 367.71 319.99 367.71 317.33 363.33 317.62" style="fill:#BA68C8"></polygon><polygon points="363.33 317.62 384.65 305.42 383.71 308.44 387.26 308.44 367.71 319.99 367.71 317.33 363.33 317.62" style="opacity:0.30000000000000004"></polygon><polygon points="383.71 308.44 383.98 310.38 387.26 308.44 383.71 308.44" style="fill:#BA68C8"></polygon><polygon points="383.71 308.44 383.98 310.38 387.26 308.44 383.71 308.44" style="opacity:0.2"></polygon><polygon points="384.65 305.42 385.25 308.44 383.71 308.44 384.65 305.42" style="fill:#BA68C8"></polygon><path d="M375,318.75a.36.36,0,0,1-.36-.36v-9.31a8,8,0,0,1,3.93-6.85,2,2,0,0,1,3.06,1.75V314.4a.36.36,0,1,1-.71,0V304a1.32,1.32,0,0,0-.66-1.15,1.34,1.34,0,0,0-1.33,0,7.25,7.25,0,0,0-3.58,6.24v9.31A.36.36,0,0,1,375,318.75Z" style="fill:#455a64"></path><path d="M375.22,320.28l-.11,0a.36.36,0,0,1-.37-.34l-.44-8.44c-.15-2.35-.31-5,1.31-7a2.22,2.22,0,0,1,2.35-.63,1.51,1.51,0,0,1,1.16,1.28l.79,8.81a.36.36,0,0,1-.33.38.34.34,0,0,1-.38-.32l-.79-8.81c0-.42-.47-.6-.66-.66a1.52,1.52,0,0,0-1.59.4c-1.45,1.8-1.29,4.2-1.15,6.52l.05.68.39,7.78A.35.35,0,0,1,375.22,320.28Z" style="fill:#455a64"></path><polygon points="373.18 324.42 385.95 358.33 403.23 337.16 387.36 306.69 373.18 324.42" style="fill:#e0e0e0"></polygon><polygon points="373.18 324.42 372.24 321.93 368.25 323.76 373.94 356.95 385.95 358.33 373.18 324.42" style="fill:#e0e0e0"></polygon><polygon points="372.24 321.93 380.02 353.44 385.95 358.33 372.24 321.93" style="fill:#e0e0e0"></polygon><polygon points="372.24 321.93 380.02 353.44 385.95 358.33 372.24 321.93" style="opacity:0.2"></polygon><polygon points="373.94 356.95 380.02 353.44 385.95 358.33 373.94 356.95" style="fill:#e0e0e0"></polygon><polygon points="373.94 356.95 380.02 353.44 385.95 358.33 373.94 356.95" style="opacity:0.1"></polygon><polygon points="368.25 323.76 383.85 304.79 384.04 307.95 387.36 306.69 373.18 324.42 372.24 321.93 368.25 323.76" style="fill:#e0e0e0"></polygon><polygon points="368.25 323.76 383.85 304.79 384.04 307.95 387.36 306.69 373.18 324.42 372.24 321.93 368.25 323.76" style="opacity:0.30000000000000004"></polygon><polygon points="384.04 307.95 384.98 309.66 387.36 306.69 384.04 307.95" style="fill:#e0e0e0"></polygon><polygon points="384.04 307.95 384.98 309.66 387.36 306.69 384.04 307.95" style="opacity:0.2"></polygon><polygon points="383.85 304.79 385.48 307.4 384.04 307.95 383.85 304.79" style="fill:#e0e0e0"></polygon><path d="M379.57,320.67a.36.36,0,0,1-.46-.21l-3.3-8.71a8,8,0,0,1,1.24-7.8,2,2,0,0,1,3.48.56l3.7,9.74a.36.36,0,0,1-.2.46.35.35,0,0,1-.46-.21l-3.7-9.74a1.31,1.31,0,0,0-1-.84,1.35,1.35,0,0,0-1.24.48,7.28,7.28,0,0,0-1.13,7.1l3.31,8.71A.35.35,0,0,1,379.57,320.67Z" style="fill:#455a64"></path><path d="M379.68,309.65a6.11,6.11,0,0,0,5.85-4.31,47.48,47.48,0,0,0,1.7-9.41c.59-6.24,1.44-14,1.91-18.17a18.06,18.06,0,0,0-.33-5.91c-2.18-9.65-4.8-18.34-6.58-23.83a11.51,11.51,0,0,0-8-7.58l-1.74-.46c-2.16,4.47-1.46,10.71-1.46,10.71L378.93,275c-.21,6.38,1.88,18.1.73,21.13a6.4,6.4,0,0,1-1.58,2,11.46,11.46,0,0,0-2.22,2.91,20.57,20.57,0,0,1-1.68,2.64,1.07,1.07,0,0,0,.28,1.53h0a1.06,1.06,0,0,0,1.16,0,8.7,8.7,0,0,0,2.26-2.21c-.41,2.49-1.89,3-2.81,3a1.37,1.37,0,0,0-1.14.73h0a2,2,0,0,0,.28,2.21h0a2,2,0,0,0,1.5.68Z" style="fill:#ffa8a7"></path><path d="M375.71,305.16a6.71,6.71,0,0,0-.42.85,7.81,7.81,0,0,0-.63,3.07v.26a1.87,1.87,0,0,0,.71.27v-.53a7.15,7.15,0,0,1,.85-3.35,7,7,0,0,1,1.48-1.94,5.28,5.28,0,0,0,.18-.78A8.65,8.65,0,0,1,375.71,305.16Z" style="fill:#455a64"></path></g><g id="freepik--character-1--inject-39"><path d="M210.89,274.41a.19.19,0,0,1-.1-.05.35.35,0,0,1-.11-.49l4.64-7.07c1.26-2,2.69-4.23,5.19-4.9a2.22,2.22,0,0,1,2.27.88,1.52,1.52,0,0,1,.18,1.72l-4.56,7.57a.35.35,0,0,1-.49.12.36.36,0,0,1-.12-.49l4.56-7.57a.86.86,0,0,0-.14-.93,1.51,1.51,0,0,0-1.51-.61c-2.24.59-3.53,2.62-4.78,4.59l-.37.57-4.27,6.51A.36.36,0,0,1,210.89,274.41Z" style="fill:#455a64"></path><polygon points="206.8 276.55 197.09 311.46 223.54 304.57 228.71 270.6 206.8 276.55" style="fill:#BA68C8"></polygon><polygon points="206.8 276.55 207.5 273.98 203.2 273.1 188.2 303.26 197.09 311.46 206.8 276.55" style="fill:#BA68C8"></polygon><polygon points="207.5 273.98 195.18 304.01 197.09 311.46 207.5 273.98" style="fill:#BA68C8"></polygon><polygon points="207.5 273.98 195.18 304.01 197.09 311.46 207.5 273.98" style="opacity:0.2"></polygon><polygon points="188.2 303.26 195.18 304.01 197.09 311.46 188.2 303.26" style="fill:#BA68C8"></polygon><polygon points="188.2 303.26 195.18 304.01 197.09 311.46 188.2 303.26" style="opacity:0.1"></polygon><polygon points="203.2 273.1 227 267 225.28 269.66 228.71 270.6 206.8 276.55 207.5 273.98 203.2 273.1" style="fill:#BA68C8"></polygon><polygon points="203.2 273.1 227 267 225.28 269.66 228.71 270.6 206.8 276.55 207.5 273.98 203.2 273.1" style="opacity:0.30000000000000004"></polygon><polygon points="225.28 269.66 225.03 271.6 228.71 270.6 225.28 269.66" style="fill:#BA68C8"></polygon><polygon points="225.28 269.66 225.03 271.6 228.71 270.6 225.28 269.66" style="opacity:0.2"></polygon><polygon points="227 267 226.76 270.07 225.28 269.66 227 267" style="fill:#BA68C8"></polygon><path d="M214.17,277.29a.36.36,0,0,1-.25-.44l2.47-9a8,8,0,0,1,5.61-5.56,2,2,0,0,1,2,.53,2,2,0,0,1,.51,2l-2.76,10.05a.36.36,0,1,1-.69-.19l2.77-10.05a1.32,1.32,0,0,0-1.62-1.62,7.25,7.25,0,0,0-5.1,5.06l-2.47,9A.36.36,0,0,1,214.17,277.29Z" style="fill:#455a64"></path><path d="M214,278.82h-.11a.35.35,0,0,1-.27-.42l1.82-8.26c.48-2.3,1-4.91,3.12-6.42a2.22,2.22,0,0,1,2.43,0,1.5,1.5,0,0,1,.78,1.54l-1.58,8.7a.34.34,0,0,1-.41.28.35.35,0,0,1-.29-.41l1.58-8.7a.83.83,0,0,0-.46-.81,1.5,1.5,0,0,0-1.63,0c-1.88,1.35-2.37,3.7-2.84,6l-.15.67-1.68,7.6A.34.34,0,0,1,214,278.82Z" style="fill:#455a64"></path><polygon points="229.27 268.94 225.73 269.27 227.26 269.13 226.39 266.17 206.31 280.33 202.99 313.84 214.21 318.36 236.49 302.53 229.27 268.94" style="fill:#455a64"></polygon><polygon points="229.27 268.94 225.73 269.27 227.26 269.13 226.39 266.17 206.31 280.33 202.99 313.84 214.21 318.36 236.49 302.53 229.27 268.94" style="fill:#fff;opacity:0.5"></polygon><polygon points="210.64 279.62 209.78 312.07 214.21 318.36 210.64 279.62" style="opacity:0.2"></polygon><polygon points="202.99 313.84 209.78 312.07 214.21 318.36 202.99 313.84" style="opacity:0.1"></polygon><polygon points="206.31 280.33 226.39 266.17 225.73 269.27 229.27 268.94 210.9 282.27 210.64 279.62 206.31 280.33" style="opacity:0.30000000000000004"></polygon><polygon points="225.73 269.27 226.19 271.17 229.27 268.94 225.73 269.27" style="opacity:0.2"></polygon><path d="M218.05,280.35a.36.36,0,0,1-.39-.32l-.87-9.28a8,8,0,0,1,3.26-7.19,2,2,0,0,1,3.22,1.46l1,10.38a.37.37,0,0,1-.32.39.36.36,0,0,1-.39-.32l-1-10.38a1.32,1.32,0,0,0-2.09-.95,7.25,7.25,0,0,0-3,6.55l.88,9.27A.35.35,0,0,1,218.05,280.35Z" style="fill:#455a64"></path><path d="M242.84,369.2a46.51,46.51,0,0,1-1.25,7.32c1.84,5.2,7.94,2.49,7.94,2.49l.14-.81.11-.63c.33-1.85,1.56-5.6,1.56-5.6Z" style="fill:#f28f8f"></path><path d="M242.84,369.2a46.51,46.51,0,0,1-1.25,7.32c1.84,5.2,7.94,2.49,7.94,2.49l.14-.81.11-.63c.33-1.85,1.56-5.6,1.56-5.6Z" style="opacity:0.30000000000000004"></path><path d="M248.72,385.93c-.79.57-1.65,1-2.45,1.6-2.18,1.57-3.61,3.59-5.79,5.16a11,11,0,0,1-7.51,2,13.74,13.74,0,0,1-7.26-3.12,14.22,14.22,0,0,0,.13,1.63,10.9,10.9,0,0,0,14.45,1.54c2.18-1.57,3.61-3.6,5.79-5.16.79-.57,1.66-1,2.45-1.6a5.37,5.37,0,0,0,1.83-2.23s-.05-.59-.09-1.51A5.48,5.48,0,0,1,248.72,385.93Z" style="fill:#f0f0f0"></path><path d="M250.33,378.36a.82.82,0,0,0-.55-.79l-.11.63a8.1,8.1,0,0,1-2.52,0,1.69,1.69,0,0,0-1.47.43l-.24.22c-.12.12-.3.25-.45.18a.29.29,0,0,1-.15-.27,1.08,1.08,0,0,1,.07-.31c.08-.21.15-.47.23-.73a1.18,1.18,0,0,0-.35-1.2,5.38,5.38,0,0,0-3.14-1.33.73.73,0,0,0-.75.58c-.76,3.69-7.7,9.55-9.86,9.87l-.5.08c3.42.47,7.72,2.36,8,8.08a10.6,10.6,0,0,0,2-1.11c2.18-1.57,3.61-3.59,5.79-5.16.8-.57,1.66-1,2.45-1.6a5.48,5.48,0,0,0,1.55-1.7A48.8,48.8,0,0,1,250.33,378.36Z" style="fill:#37474f"></path><path d="M230.54,385.72c-2.95.54-4.92,1.94-4.83,5.84a13.74,13.74,0,0,0,7.26,3.12,11,11,0,0,0,5.54-.88C238.26,388.08,234,386.19,230.54,385.72Z" style="fill:#fff"></path><path d="M282.84,357.54a15.87,15.87,0,0,1,4,4.7c3.38,2.16,7.2-3.91,7.2-3.91l-.27-.58c-1-1.7-3.2-5.91-3.2-5.91Z" style="fill:#f28f8f"></path><path d="M282.84,357.54a15.87,15.87,0,0,1,4,4.7c3.38,2.16,7.2-3.91,7.2-3.91l-.27-.58c-1-1.7-3.2-5.91-3.2-5.91Z" style="opacity:0.30000000000000004"></path><path d="M297.69,365.18c-.31.93-.75,1.8-1.07,2.72-.87,2.54-.87,5-1.74,7.56a11,11,0,0,1-5,6,13.67,13.67,0,0,1-7.73,1.65,13.92,13.92,0,0,0,1.06,1.26,10.89,10.89,0,0,0,12.67-7.1c.88-2.54.87-5,1.75-7.56.31-.92.75-1.8,1.07-2.72a5.43,5.43,0,0,0,.2-2.88s-.38-.45-.94-1.18A5.52,5.52,0,0,1,297.69,365.18Z" style="fill:#f0f0f0"></path><path d="M294.63,358.08a.8.8,0,0,0-.9-.33l.27.58a8,8,0,0,1-2.06,1.45A1.72,1.72,0,0,0,291,361l-.06.32c0,.16-.1.37-.27.4a.32.32,0,0,1-.28-.13,1.11,1.11,0,0,1-.12-.3,7.58,7.58,0,0,0-.24-.72,1.17,1.17,0,0,0-1-.78,5.32,5.32,0,0,0-3.33.73.72.72,0,0,0-.28.91c1.51,3.45-.76,12.24-2.34,13.74l-.36.36c3.06-1.59,7.66-2.53,11.17,2a11,11,0,0,0,1-2.05c.87-2.53.87-5,1.74-7.56.32-.92.76-1.79,1.07-2.72a5.52,5.52,0,0,0,.29-2.28A46.43,46.43,0,0,1,294.63,358.08Z" style="fill:#37474f"></path><path d="M282.74,375.52c-2.1,2.15-2.89,4.44-.57,7.56a13.67,13.67,0,0,0,7.73-1.65,10.92,10.92,0,0,0,4-3.92C290.4,373,285.8,373.93,282.74,375.52Z" style="fill:#fff"></path><path d="M274.49,263.93c4.6,16.41.11,31.25-7.31,53,5.89,4.36,14.25,17.6,24.05,35.22,0,0-5.46,7.56-11.57,7.76-1.21-1.58-17.6-22.74-17.6-22.74l-9.93,36s-7.86,1.26-12.42-3.21c0,0,6.09-41.14,7.92-51.14-4.7-9.28-11.56-25.57-5.59-54.83Z" style="fill:#455a64"></path><path d="M248.16,316.13c2.1-15.94,4.5-26.73,4.5-26.73-6-3.21-8-6.57-8-6.57a13.82,13.82,0,0,0,5.65,8.39C248.44,300.37,248.16,316.13,248.16,316.13Z" style="opacity:0.2"></path><path d="M262.06,337.16a33.08,33.08,0,0,0,.89-8.09l4.23-12.15-3.12,12.28c.26,2.92.35,8.31-.28,10.18Z" style="opacity:0.2"></path><path d="M252.79,221.2l-3.26.35a8,8,0,0,0-5.9,3.61c-3.35,5.17-4.91,13.08-4,21.64,1.12,10.67.43,29.13.43,29.13,14.15,10.33,35.26,1.14,37.5-1.1,0,0-3.82-21.49-3.23-22.85,1.33-3.1,3.71-9.21,4-13.94a24.75,24.75,0,0,0-2.58-12.18l-12.4-4.66Z" style="fill:#BA68C8"></path><g style="opacity:0.1"><path d="M252.79,221.2l-3.26.35a8,8,0,0,0-5.9,3.61c-3.35,5.17-4.91,13.08-4,21.64,1.12,10.67.43,29.13.43,29.13,14.15,10.33,35.26,1.14,37.5-1.1,0,0-3.82-21.49-3.23-22.85,1.33-3.1,3.71-9.21,4-13.94a24.75,24.75,0,0,0-2.58-12.18l-12.4-4.66Z"></path></g><path d="M263.42,213v8.47a3.92,3.92,0,0,1-1.29,3,11.28,11.28,0,0,1-8.15,2.8,2.81,2.81,0,0,1-1.68-.51,2.24,2.24,0,0,1-.54-2.31,4.29,4.29,0,0,1,.54-1.12,4.5,4.5,0,0,0,.74-2.41V213Z" style="fill:#ffa8a7"></path><path d="M263.42,213v8.47a3.92,3.92,0,0,1-1.29,3,11.28,11.28,0,0,1-8.15,2.8,2.81,2.81,0,0,1-1.68-.51,2.24,2.24,0,0,1-.54-2.31,4.29,4.29,0,0,1,.54-1.12,4.5,4.5,0,0,0,.74-2.41V213Z" style="opacity:0.30000000000000004"></path><path d="M262.8,213,253,213v7.2a15.93,15.93,0,0,0,6.18-2.26A9.48,9.48,0,0,0,262.8,213Z" style="opacity:0.2"></path><path d="M243.91,198.66a6,6,0,0,1-3.85-1.25,6.08,6.08,0,0,1-1.53-1.78.82.82,0,0,1,.89-1.17,6.41,6.41,0,0,0,2.27,0,10.76,10.76,0,0,1-2.11-8,1,1,0,0,1,1.44-.76,19.9,19.9,0,0,0,10.08,2c1.85-.14,3.67-.53,5.52-.67a10.31,10.31,0,0,1,5.44.83,5.18,5.18,0,0,1,3,4.38,2.52,2.52,0,0,1,1.83-1.07,2.81,2.81,0,0,1,2.15.64c-1.07.58-2.12,1.18-3.19,1.77a2.76,2.76,0,0,1,3,1.49,7.28,7.28,0,0,1,.59,3.41,26.51,26.51,0,0,1-.21,4.63,8.91,8.91,0,0,1-1.75,4.24,6.8,6.8,0,0,1-3.19,2.16,8.73,8.73,0,0,1-5.18-.16,21,21,0,0,1-4.69-2.35A73.52,73.52,0,0,1,243.91,198.66Z" style="fill:#263238"></path><path d="M243.68,195.58a35.6,35.6,0,0,0,2,19,6.79,6.79,0,0,0,2.59,3.59c1.36.78,3.06.61,4.61.38a23.51,23.51,0,0,0,7.29-2,10,10,0,0,0,5.05-5.44,4.35,4.35,0,0,0,4.41-1.73,8.27,8.27,0,0,0,1.44-4.83c0-1.09-.21-2.38-1.19-2.86a2.76,2.76,0,0,0-2.79.7,8.32,8.32,0,0,0-2.73,4.08c-.72-2.66-1.84-5.22-2.56-7.88a4.5,4.5,0,0,0-1.55-2.77c-1.12-.72-2.57-.31-3.86,0A25.38,25.38,0,0,1,243.68,195.58Z" style="fill:#ffa8a7"></path><path d="M243.68,195.58a35.6,35.6,0,0,0,2,19,6.79,6.79,0,0,0,2.59,3.59c1.36.78,3.06.61,4.61.38a23.51,23.51,0,0,0,7.29-2,10,10,0,0,0,5.05-5.44,4.35,4.35,0,0,0,4.41-1.73,8.27,8.27,0,0,0,1.44-4.83c0-1.09-.21-2.38-1.19-2.86a2.76,2.76,0,0,0-2.79.7,8.32,8.32,0,0,0-2.73,4.08c-.72-2.66-1.84-5.22-2.56-7.88a4.5,4.5,0,0,0-1.55-2.77c-1.12-.72-2.57-.31-3.86,0A25.38,25.38,0,0,1,243.68,195.58Z" style="opacity:0.30000000000000004"></path><polygon points="251.43 203.65 248.32 208.88 252.03 209.58 251.43 203.65" style="fill:#f28f8f"></polygon><polygon points="251.43 203.65 248.32 208.88 252.03 209.58 251.43 203.65" style="opacity:0.4"></polygon><path d="M255.6,211.39l-2.81,1.37a1.83,1.83,0,0,0,2.13.6A1.64,1.64,0,0,0,255.6,211.39Z" style="fill:#f28f8f"></path><path d="M255.6,211.39l-2.81,1.37a1.83,1.83,0,0,0,2.13.6A1.64,1.64,0,0,0,255.6,211.39Z" style="opacity:0.4"></path><path d="M253.94,213.46a1.7,1.7,0,0,0,1-.1,1.49,1.49,0,0,0,.76-1.48,1.78,1.78,0,0,0-1.11.38A1.82,1.82,0,0,0,253.94,213.46Z" style="fill:#f28f8f"></path><path d="M256.8,203.86a1.07,1.07,0,0,1-2.12.21,1.07,1.07,0,1,1,2.12-.21Z" style="fill:#263238"></path><path d="M247.87,204.41a1.07,1.07,0,1,1-1.17-.95A1.07,1.07,0,0,1,247.87,204.41Z" style="fill:#263238"></path><path d="M246.41,200.3l-2.18,1.86a1.52,1.52,0,0,1,.29-1.71A1.79,1.79,0,0,1,246.41,200.3Z" style="fill:#263238"></path><path d="M255.48,199.26l2.51,1.38a1.51,1.51,0,0,0-.63-1.61A1.78,1.78,0,0,0,255.48,199.26Z" style="fill:#263238"></path><polygon points="249.51 275.97 249.49 289.42 273.19 275.65 273.2 262.2 249.51 275.97" style="fill:#BA68C8"></polygon><polygon points="213.2 255.01 213.19 268.45 249.49 289.42 249.51 275.97 213.2 255.01" style="fill:#BA68C8"></polygon><polygon points="213.2 255.01 213.19 268.45 249.49 289.42 249.51 275.97 213.2 255.01" style="opacity:0.2"></polygon><polygon points="249.51 277.56 273.2 263.79 273.2 262.2 249.51 275.97 249.51 277.56 249.51 277.56" style="opacity:0.2"></polygon><polygon points="249.51 275.97 213.2 255.01 213.2 256.6 249.51 277.56 249.51 275.97" style="opacity:0.2"></polygon><polygon points="274.06 257.15 236.72 235.59 212.35 249.75 249.69 271.31 274.06 257.15" style="fill:#BA68C8"></polygon><polygon points="274.06 257.15 236.72 235.59 212.35 249.75 249.69 271.31 274.06 257.15" style="fill:#fff;opacity:0.2"></polygon><polygon points="249.69 271.31 249.67 276.46 274.04 262.3 274.06 257.15 249.69 271.31" style="fill:#BA68C8"></polygon><polygon points="212.35 249.75 212.33 254.91 249.67 276.46 249.69 271.31 212.35 249.75" style="fill:#BA68C8"></polygon><polygon points="212.35 249.75 212.33 254.91 249.67 276.46 249.69 271.31 212.35 249.75" style="opacity:0.2"></polygon><polygon points="236.72 235.59 212.35 249.75 212.33 254.91 213.2 255.41 213.2 256.6 213.19 268.45 249.49 289.42 273.19 275.65 273.2 262.79 274.04 262.3 274.06 257.15 236.72 235.59" style="fill:#fff;opacity:0.2"></polygon><polygon points="243.68 257.4 243.66 270.84 267.36 257.07 267.37 243.63 243.68 257.4" style="fill:#e0e0e0"></polygon><polygon points="207.37 236.43 207.35 249.88 243.66 270.84 243.68 257.4 207.37 236.43" style="fill:#e0e0e0"></polygon><polygon points="207.37 236.43 207.35 249.88 243.66 270.84 243.68 257.4 207.37 236.43" style="opacity:0.2"></polygon><polygon points="243.68 258.99 267.37 245.22 267.37 243.63 243.68 257.4 243.68 258.99 243.68 258.99" style="opacity:0.2"></polygon><polygon points="243.68 257.4 207.37 236.43 207.37 238.02 243.68 258.99 243.68 257.4" style="opacity:0.2"></polygon><polygon points="268.23 238.57 230.88 217.01 206.52 231.17 243.86 252.73 268.23 238.57" style="fill:#e0e0e0"></polygon><polygon points="268.23 238.57 230.88 217.01 206.52 231.17 243.86 252.73 268.23 238.57" style="fill:#fff;opacity:0.2"></polygon><polygon points="243.86 252.73 243.84 257.89 268.21 243.73 268.23 238.57 243.86 252.73" style="fill:#e0e0e0"></polygon><polygon points="206.52 231.17 206.5 236.33 243.84 257.89 243.86 252.73 206.52 231.17" style="fill:#e0e0e0"></polygon><polygon points="206.52 231.17 206.5 236.33 243.84 257.89 243.86 252.73 206.52 231.17" style="opacity:0.2"></polygon><polygon points="230.88 217.01 206.52 231.17 206.5 236.33 207.37 236.83 207.37 238.02 207.35 249.88 243.66 270.84 267.36 257.07 267.37 244.21 268.21 243.73 268.23 238.57 230.88 217.01" style="fill:#fff;opacity:0.30000000000000004"></polygon><path d="M251.18,295.64l-.11,0a.36.36,0,0,1-.23-.45l2.59-8.05c.7-2.24,1.48-4.79,3.71-6.1a2.25,2.25,0,0,1,2.43.25,1.51,1.51,0,0,1,.62,1.61l-2.39,8.51a.35.35,0,0,1-.44.25.37.37,0,0,1-.24-.44l2.39-8.52a.85.85,0,0,0-.38-.85,1.51,1.51,0,0,0-1.63-.19c-2,1.16-2.7,3.47-3.39,5.69l-.2.65-2.39,7.41A.36.36,0,0,1,251.18,295.64Z" style="fill:#455a64"></path><polygon points="247.81 298.79 247.71 335.02 271.38 321.36 267.35 287.24 247.81 298.79" style="fill:#BA68C8"></polygon><polygon points="247.81 298.79 247.81 296.12 243.42 296.42 236.97 329.47 247.71 335.02 247.81 298.79" style="fill:#BA68C8"></polygon><polygon points="247.81 296.12 243.9 328.34 247.71 335.02 247.81 296.12" style="fill:#BA68C8"></polygon><polygon points="247.81 296.12 243.9 328.34 247.71 335.02 247.81 296.12" style="opacity:0.2"></polygon><polygon points="236.97 329.47 243.9 328.34 247.71 335.02 236.97 329.47" style="fill:#BA68C8"></polygon><polygon points="236.97 329.47 243.9 328.34 247.71 335.02 236.97 329.47" style="opacity:0.1"></polygon><polygon points="243.42 296.42 264.75 284.22 263.8 287.24 267.35 287.24 247.81 298.79 247.81 296.12 243.42 296.42" style="fill:#BA68C8"></polygon><polygon points="243.42 296.42 264.75 284.22 263.8 287.24 267.35 287.24 247.81 298.79 247.81 296.12 243.42 296.42" style="opacity:0.30000000000000004"></polygon><polygon points="263.8 287.24 264.08 289.17 267.35 287.24 263.8 287.24" style="fill:#BA68C8"></polygon><polygon points="263.8 287.24 264.08 289.17 267.35 287.24 263.8 287.24" style="opacity:0.2"></polygon><polygon points="264.75 284.22 265.34 287.24 263.8 287.24 264.75 284.22" style="fill:#BA68C8"></polygon><path d="M255.11,297.54a.35.35,0,0,1-.35-.35v-9.32a8,8,0,0,1,3.92-6.85,2,2,0,0,1,3.06,1.76V293.2a.35.35,0,0,1-.35.36.36.36,0,0,1-.36-.36V282.78a1.32,1.32,0,0,0-2-1.14,7.25,7.25,0,0,0-3.57,6.23v9.32A.36.36,0,0,1,255.11,297.54Z" style="fill:#455a64"></path><path d="M255.31,299.08l-.1,0a.36.36,0,0,1-.38-.34l-.43-8.45c-.15-2.34-.32-5,1.3-7a2.22,2.22,0,0,1,2.35-.63,1.5,1.5,0,0,1,1.16,1.28l.79,8.8a.36.36,0,0,1-.33.39.36.36,0,0,1-.38-.32L258.5,284c0-.43-.47-.61-.66-.66a1.51,1.51,0,0,0-1.58.39c-1.46,1.8-1.3,4.2-1.15,6.53l0,.68.39,7.78A.35.35,0,0,1,255.31,299.08Z" style="fill:#455a64"></path><polygon points="253.28 303.22 266.05 337.13 283.33 315.95 267.45 285.48 253.28 303.22" style="fill:#e0e0e0"></polygon><polygon points="253.28 303.22 252.33 300.73 248.34 302.56 254.03 335.75 266.05 337.13 253.28 303.22" style="fill:#e0e0e0"></polygon><polygon points="252.33 300.73 260.11 332.24 266.05 337.13 252.33 300.73" style="fill:#e0e0e0"></polygon><polygon points="252.33 300.73 260.11 332.24 266.05 337.13 252.33 300.73" style="opacity:0.2"></polygon><polygon points="254.03 335.75 260.11 332.24 266.05 337.13 254.03 335.75" style="fill:#e0e0e0"></polygon><polygon points="254.03 335.75 260.11 332.24 266.05 337.13 254.03 335.75" style="opacity:0.1"></polygon><polygon points="248.34 302.56 263.94 283.58 264.13 286.74 267.45 285.48 253.28 303.22 252.33 300.73 248.34 302.56" style="fill:#e0e0e0"></polygon><polygon points="248.34 302.56 263.94 283.58 264.13 286.74 267.45 285.48 253.28 303.22 252.33 300.73 248.34 302.56" style="opacity:0.30000000000000004"></polygon><polygon points="264.13 286.74 265.08 288.45 267.45 285.48 264.13 286.74" style="fill:#e0e0e0"></polygon><polygon points="264.13 286.74 265.08 288.45 267.45 285.48 264.13 286.74" style="opacity:0.2"></polygon><polygon points="263.94 283.58 265.57 286.2 264.13 286.74 263.94 283.58" style="fill:#e0e0e0"></polygon><path d="M259.66,299.46a.35.35,0,0,1-.45-.2l-3.31-8.71a8,8,0,0,1,1.24-7.8,2,2,0,0,1,3.49.55l3.7,9.75a.37.37,0,0,1-.21.46.36.36,0,0,1-.46-.21l-3.7-9.74a1.29,1.29,0,0,0-1-.84,1.28,1.28,0,0,0-1.23.48,7.23,7.23,0,0,0-1.13,7.1l3.3,8.7A.35.35,0,0,1,259.66,299.46Z" style="fill:#455a64"></path><path d="M277.23,253.52l3.27,12-12.7,10.65a4.82,4.82,0,0,1-3.23,1.12,15.7,15.7,0,0,0-3.89.22c-1,.23-2,.55-2.95.78a9.08,9.08,0,0,1-2.13.27.86.86,0,0,0-.83,1.2,1.9,1.9,0,0,0,.43.57,3.42,3.42,0,0,0,1.85.73,8.26,8.26,0,0,0,3.17-.17,8.19,8.19,0,0,1-3.91,2.43c-1.43.48-2.92.75-4.34,1.25a2.76,2.76,0,0,0-1.4.89,1.07,1.07,0,0,0,.18,1.49c.61.38,1.44-.18,2.1.09a2.83,2.83,0,0,0,0,1.16,1.69,1.69,0,0,0,.71.95,1.17,1.17,0,0,0,1.16,0,4.14,4.14,0,0,0,2.68,1.82,8.15,8.15,0,0,0,3.3,0c4.53-.84,7.39-4.78,10.94-7.71.49-.4,13-7.38,19.4-10.94a5.49,5.49,0,0,0,2.65-6.16l-4.09-15.88Z" style="fill:#ffa8a7"></path><path d="M277.23,253.52l3.27,12-12.7,10.65a4.82,4.82,0,0,1-3.23,1.12,15.7,15.7,0,0,0-3.89.22c-1,.23-2,.55-2.95.78a9.08,9.08,0,0,1-2.13.27.86.86,0,0,0-.83,1.2,1.9,1.9,0,0,0,.43.57,3.42,3.42,0,0,0,1.85.73,8.26,8.26,0,0,0,3.17-.17,8.19,8.19,0,0,1-3.91,2.43c-1.43.48-2.92.75-4.34,1.25a2.76,2.76,0,0,0-1.4.89,1.07,1.07,0,0,0,.18,1.49c.61.38,1.44-.18,2.1.09a2.83,2.83,0,0,0,0,1.16,1.69,1.69,0,0,0,.71.95,1.17,1.17,0,0,0,1.16,0,4.14,4.14,0,0,0,2.68,1.82,8.15,8.15,0,0,0,3.3,0c4.53-.84,7.39-4.78,10.94-7.71.49-.4,13-7.38,19.4-10.94a5.49,5.49,0,0,0,2.65-6.16l-4.09-15.88Z" style="opacity:0.30000000000000004"></path><path d="M288.3,265.24c-1.37-.64-5.75-1.17-7.8.26l-.34-1.23A7.21,7.21,0,0,1,288.3,265.24Z" style="opacity:0.2"></path><path d="M275.65,225.81l1.8.51a11.74,11.74,0,0,1,7.89,7.51l5.74,16.89c-5.17,5.43-14.47,3.77-14.47,3.77l-1.84-8.6C268.28,234.58,274.25,227.66,275.65,225.81Z" style="fill:#BA68C8"></path><path d="M275.65,225.81l1.8.51a11.74,11.74,0,0,1,7.89,7.51l5.74,16.89c-5.17,5.43-14.47,3.77-14.47,3.77l-1.84-8.6C268.28,234.58,274.25,227.66,275.65,225.81Z" style="opacity:0.30000000000000004"></path></g></svg>