<svg id="visual" viewBox="0 0 960 540" width="960" height="540" xmlns="http://www.w3.org/2000/svg" xmlns:xlink="http://www.w3.org/1999/xlink" version="1.1"><rect x="0" y="0" width="960" height="540" fill="#EBECF0"></rect><g transform="translate(491.67037711525495 267.03140023619125)"><path d="M106.2 -177.5C140.4 -164.2 172.8 -141.4 183.5 -110.2C194.2 -79 183.1 -39.5 180.9 -1.3C178.8 37 185.5 74 171.1 98.7C156.7 123.4 121.1 135.7 89 154.4C57 173.1 28.5 198 0.2 197.7C-28.1 197.4 -56.3 171.8 -94.8 156.9C-133.3 141.9 -182.3 137.7 -200.2 113.4C-218.2 89 -205.1 44.5 -205.5 -0.2C-205.9 -45 -219.9 -90 -203.4 -116.8C-186.9 -143.7 -139.9 -152.4 -101 -162.9C-62 -173.4 -31 -185.7 2.5 -190C36 -194.4 72 -190.7 106.2 -177.5" fill="#001220"></path></g></svg>